<svg width="68" height="69" viewBox="0 0 68 69" fill="none" xmlns="http://www.w3.org/2000/svg">
<g id="Frame" clip-path="url(#clip0_62_2168)">
<g id="Vector">
<path d="M10.3119 58.5656C4.02945 52.2832 0.5 43.7623 0.5 34.8776C0.5 25.9928 4.02945 17.472 10.3119 11.1895C16.5944 4.90702 25.1152 1.37756 34 1.37756C42.8848 1.37756 51.4056 4.90702 57.6881 11.1895C63.9705 17.472 67.5 25.9928 67.5 34.8776C67.5 43.7623 63.9705 52.2832 57.6881 58.5656C51.4056 64.8481 42.8848 68.3776 34 68.3776C25.1152 68.3776 16.5944 64.8481 10.3119 58.5656Z" fill="#C98F53"/>
<path d="M10.3119 58.5656C4.02945 52.2832 0.5 43.7623 0.5 34.8776C0.5 25.9928 4.02945 17.472 10.3119 11.1895C16.5944 4.90702 25.1152 1.37756 34 1.37756C42.8848 1.37756 51.4056 4.90702 57.6881 11.1895C63.9705 17.472 67.5 25.9928 67.5 34.8776C67.5 43.7623 63.9705 52.2832 57.6881 58.5656C51.4056 64.8481 42.8848 68.3776 34 68.3776C25.1152 68.3776 16.5944 64.8481 10.3119 58.5656Z" stroke="url(#paint0_linear_62_2168)" style="mix-blend-mode:overlay"/>
</g>
<path id="Vector_2" d="M39.6666 34.8776C39.6666 31.8176 37.1733 29.2109 33.9999 29.2109C30.8266 29.2109 28.3333 31.7042 28.3333 34.8776C28.3333 38.0509 30.8266 40.5442 33.9999 40.5442C37.1733 40.5442 39.6666 37.9376 39.6666 34.8776ZM34.2266 38.2776C33.8866 38.2776 33.5466 37.9376 33.5466 37.5976C33.5466 37.2576 33.8866 36.9176 34.2266 36.9176C34.5666 36.9176 34.9066 37.2576 34.9066 37.5976C34.7933 37.9376 34.5666 38.2776 34.2266 38.2776ZM39.3266 34.8776C39.3266 37.2576 37.7399 39.1842 35.6999 39.8642C36.4933 39.4109 36.9466 38.5042 36.9466 37.5976C36.9466 36.1242 35.6999 34.8776 34.2266 34.8776C32.7533 34.8776 31.5066 33.6309 31.5066 32.1576C31.5066 31.0242 32.1866 30.1176 33.0933 29.6642C33.4333 29.5509 33.7733 29.5509 34.1133 29.5509C36.9466 29.5509 39.3266 31.9309 39.3266 34.8776Z" fill="white"/>
<path id="Vector_3" d="M33.5467 32.1576C33.5467 32.4976 33.8867 32.8376 34.2267 32.8376C34.5667 32.8376 34.9067 32.4976 34.9067 32.1576C34.9067 31.8176 34.5667 31.4776 34.2267 31.4776C33.8867 31.4776 33.5467 31.8176 33.5467 32.1576ZM39.8933 20.0309L40.8 17.8776H27.4267L28.3333 20.0309H39.8933ZM19.1533 28.9842L17 28.0776V41.4509L19.1533 40.5442V28.9842ZM40.3467 49.4976L41.2533 51.7642L50.66 42.2442L48.5067 41.3376L40.3467 49.4976ZM48.8467 29.2109V40.7709L51 41.6776V28.3042L48.8467 29.2109ZM30.8267 28.1909L29.92 25.9242L25.16 30.7976L27.3133 31.7042L30.8267 28.1909ZM31.5067 27.9642H36.4933L37.4 25.6976H30.6L31.5067 27.9642ZM30.8267 41.5642L27.3133 38.0509L25.0467 38.9576L29.92 43.7176L30.8267 41.5642ZM42.84 38.9576L40.6867 38.0509L37.1733 41.5642L38.08 43.8309L42.84 38.9576ZM21.08 29.0976L23.2333 30.0042L29.1267 23.9976L28.3333 21.8442L21.08 29.0976ZM46.92 40.6576L44.7667 39.7509L38.8733 45.7576L39.6667 47.9109L46.92 40.6576ZM47.26 29.8909L45.1067 30.7976V39.1842L47.26 40.0909V29.8909ZM38.08 45.9842H29.6933L28.7867 48.1376H38.9867L38.08 45.9842ZM29.92 23.7709H33.5467V21.6176H29.0133L29.92 23.7709ZM34.4533 23.7709H38.3067L39.2133 21.6176H34.4533V23.7709ZM27.6533 20.2576L26.7467 17.9909L22.44 22.4109L23.9133 23.8842L27.6533 20.2576ZM23.2333 24.6776L21.6467 23.0909L17.34 27.5109L19.4933 28.4176L23.2333 24.6776ZM36.4933 41.7909H34.4533V44.0576H37.4L36.4933 41.7909ZM33.5467 41.7909H31.5067L30.6 44.0576H33.5467V41.7909ZM34.4533 49.7242V51.8776H40.5733L39.6667 49.7242H34.4533ZM27.2 51.8776H33.5467V49.7242H28.1067L27.2 51.8776ZM43.18 31.4776L40.9133 32.3842V34.3109H43.18V31.4776ZM43.18 35.3309H40.9133V37.3709L43.18 38.2776V35.3309ZM20.74 34.3109H22.8933V30.5709L20.74 29.6642V34.3109ZM20.74 39.8642L22.8933 38.9576V35.3309H20.74V39.8642ZM24.82 34.3109H27.0867V32.3842L24.82 31.4776V34.3109ZM24.82 38.2776L27.0867 37.3709V35.3309H24.82V38.2776ZM19.38 41.2242L17.1133 42.1309L21.5333 46.4376L23.0067 44.9642L19.38 41.2242ZM23.8 45.6442L22.2133 47.2309L26.6333 51.5376L27.54 49.3842L23.8 45.6442ZM25.7267 42.2442L23.12 39.7509L20.9667 40.5442L24.14 43.8309L25.7267 42.2442ZM29.1267 45.6442L26.4067 42.9242L24.82 44.5109L28.22 47.7976L29.1267 45.6442ZM44.0867 23.8842L45.56 22.4109L41.3667 18.2176L40.46 20.3709L44.0867 23.8842ZM48.62 28.5309L50.8867 27.6242L46.3533 23.0909L44.7667 24.6776L48.62 28.5309ZM42.9533 30.7976L40.8 28.6442L39.2133 30.2309L40.6867 31.7042L42.9533 30.7976ZM37.1733 28.1909L38.5333 29.5509L40.0067 27.9642L38.08 26.0376L37.1733 28.1909ZM47.0333 29.2109L43.6333 25.8109L42.0467 27.2842L44.88 30.0042L47.0333 29.2109ZM38.8733 24.1109L41.3667 26.6042L42.9533 25.0176L39.78 21.9576L38.8733 24.1109Z" fill="white"/>
</g>
<defs>
<linearGradient id="paint0_linear_62_2168" x1="34" y1="0.877563" x2="34" y2="68.8776" gradientUnits="userSpaceOnUse">
<stop stop-color="white"/>
<stop offset="1" stop-color="white" stop-opacity="0"/>
</linearGradient>
<clipPath id="clip0_62_2168">
<rect width="68" height="68" fill="white" transform="translate(0 0.877563)"/>
</clipPath>
</defs>
</svg>
