<svg width="33" height="33" viewBox="0 0 33 33" fill="none" xmlns="http://www.w3.org/2000/svg">
<g id="Frame" clip-path="url(#clip0_62_2250)">
<path id="Vector" d="M0.708496 16.5519C0.708496 20.7953 2.39421 24.865 5.39479 27.8656C8.39537 30.8662 12.465 32.5519 16.7085 32.5519C20.952 32.5519 25.0216 30.8662 28.0222 27.8656C31.0228 24.865 32.7085 20.7953 32.7085 16.5519C32.7085 12.3084 31.0228 8.23875 28.0222 5.23817C25.0216 2.23759 20.952 0.55188 16.7085 0.55188C12.465 0.55188 8.39537 2.23759 5.39479 5.23817C2.39421 8.23875 0.708496 12.3084 0.708496 16.5519Z" fill="#C98F53"/>
<path id="Vector_2" d="M19.3751 16.5519C19.3751 15.1119 18.2017 13.8852 16.7084 13.8852C15.2151 13.8852 14.0417 15.0585 14.0417 16.5519C14.0417 18.0452 15.2151 19.2185 16.7084 19.2185C18.2017 19.2185 19.3751 17.9919 19.3751 16.5519ZM16.8151 18.1519C16.6551 18.1519 16.4951 17.9919 16.4951 17.8319C16.4951 17.6719 16.6551 17.5119 16.8151 17.5119C16.9751 17.5119 17.1351 17.6719 17.1351 17.8319C17.0817 17.9919 16.9751 18.1519 16.8151 18.1519ZM19.2151 16.5519C19.2151 17.6719 18.4684 18.5785 17.5084 18.8985C17.8817 18.6852 18.0951 18.2585 18.0951 17.8319C18.0951 17.1385 17.5084 16.5519 16.8151 16.5519C16.1217 16.5519 15.5351 15.9652 15.5351 15.2719C15.5351 14.7385 15.8551 14.3119 16.2817 14.0985C16.4417 14.0452 16.6017 14.0452 16.7617 14.0452C18.0951 14.0452 19.2151 15.1652 19.2151 16.5519Z" fill="white"/>
<path id="Vector_3" d="M16.4952 15.2719C16.4952 15.4319 16.6552 15.5919 16.8152 15.5919C16.9752 15.5919 17.1352 15.4319 17.1352 15.2719C17.1352 15.1119 16.9752 14.9519 16.8152 14.9519C16.6552 14.9519 16.4952 15.1119 16.4952 15.2719ZM19.4818 9.56521L19.9085 8.55188H13.6152L14.0418 9.56521H19.4818ZM9.72183 13.7785L8.7085 13.3519V19.6452L9.72183 19.2185V13.7785ZM19.6952 23.4319L20.1218 24.4985L24.5485 20.0185L23.5352 19.5919L19.6952 23.4319ZM23.6952 13.8852V19.3252L24.7085 19.7519V13.4585L23.6952 13.8852ZM15.2152 13.4052L14.7885 12.3385L12.5485 14.6319L13.5618 15.0585L15.2152 13.4052ZM15.5352 13.2985H17.8818L18.3085 12.2319H15.1085L15.5352 13.2985ZM15.2152 19.6985L13.5618 18.0452L12.4952 18.4719L14.7885 20.7119L15.2152 19.6985ZM20.8685 18.4719L19.8552 18.0452L18.2018 19.6985L18.6285 20.7652L20.8685 18.4719ZM10.6285 13.8319L11.6418 14.2585L14.4152 11.4319L14.0418 10.4185L10.6285 13.8319ZM22.7885 19.2719L21.7752 18.8452L19.0018 21.6719L19.3752 22.6852L22.7885 19.2719ZM22.9485 14.2052L21.9352 14.6319V18.5785L22.9485 19.0052V14.2052ZM18.6285 21.7785H14.6818L14.2552 22.7919H19.0552L18.6285 21.7785ZM14.7885 11.3252H16.4952V10.3119H14.3618L14.7885 11.3252ZM16.9218 11.3252H18.7352L19.1618 10.3119H16.9218V11.3252ZM13.7218 9.67188L13.2952 8.60521L11.2685 10.6852L11.9618 11.3785L13.7218 9.67188ZM11.6418 11.7519L10.8952 11.0052L8.8685 13.0852L9.88183 13.5119L11.6418 11.7519ZM17.8818 19.8052H16.9218V20.8719H18.3085L17.8818 19.8052ZM16.4952 19.8052H15.5352L15.1085 20.8719H16.4952V19.8052ZM16.9218 23.5385V24.5519H19.8018L19.3752 23.5385H16.9218ZM13.5085 24.5519H16.4952V23.5385H13.9352L13.5085 24.5519ZM21.0285 14.9519L19.9618 15.3785V16.2852H21.0285V14.9519ZM21.0285 16.7652H19.9618V17.7252L21.0285 18.1519V16.7652ZM10.4685 16.2852H11.4818V14.5252L10.4685 14.0985V16.2852ZM10.4685 18.8985L11.4818 18.4719V16.7652H10.4685V18.8985ZM12.3885 16.2852H13.4552V15.3785L12.3885 14.9519V16.2852ZM12.3885 18.1519L13.4552 17.7252V16.7652H12.3885V18.1519ZM9.8285 19.5385L8.76183 19.9652L10.8418 21.9919L11.5352 21.2985L9.8285 19.5385ZM11.9085 21.6185L11.1618 22.3652L13.2418 24.3919L13.6685 23.3785L11.9085 21.6185ZM12.8152 20.0185L11.5885 18.8452L10.5752 19.2185L12.0685 20.7652L12.8152 20.0185ZM14.4152 21.6185L13.1352 20.3385L12.3885 21.0852L13.9885 22.6319L14.4152 21.6185ZM21.4552 11.3785L22.1485 10.6852L20.1752 8.71188L19.7485 9.72521L21.4552 11.3785ZM23.5885 13.5652L24.6552 13.1385L22.5218 11.0052L21.7752 11.7519L23.5885 13.5652ZM20.9218 14.6319L19.9085 13.6185L19.1618 14.3652L19.8552 15.0585L20.9218 14.6319ZM18.2018 13.4052L18.8418 14.0452L19.5352 13.2985L18.6285 12.3919L18.2018 13.4052ZM22.8418 13.8852L21.2418 12.2852L20.4952 12.9785L21.8285 14.2585L22.8418 13.8852ZM19.0018 11.4852L20.1752 12.6585L20.9218 11.9119L19.4285 10.4719L19.0018 11.4852Z" fill="white"/>
</g>
<defs>
<clipPath id="clip0_62_2250">
<rect width="32" height="32" fill="white" transform="translate(0.708496 0.55188)"/>
</clipPath>
</defs>
</svg>
