<svg width="54" height="54" viewBox="0 0 54 54" fill="none" xmlns="http://www.w3.org/2000/svg">
<g id="Tab 1">
<g id="Group 427319158">
<g id="Frame">
<path id="Vector" d="M21.964 13H32.036C32.1075 13.496 32.2848 13.9708 32.5557 14.3924C32.8266 14.814 33.1849 15.1725 33.6063 15.4436C34.0277 15.7148 34.5025 15.8923 34.9984 15.9641C35.4943 16.0359 35.9999 16.0004 36.481 15.86C36.3919 16.7213 35.9868 17.5189 35.3438 18.0989C34.7009 18.6788 33.8658 18.9999 33 19H21C20.1341 18.9999 19.299 18.6788 18.6561 18.0989C18.0132 17.5189 17.608 16.7213 17.519 15.86C18 16.0004 18.5056 16.0359 19.0015 15.9641C19.4975 15.8923 19.9722 15.7148 20.3937 15.4436C20.8151 15.1725 21.1734 14.814 21.4443 14.3924C21.7152 13.9708 21.8924 13.496 21.964 13ZM37.979 21.111C37.2905 21.5014 36.4755 21.6039 35.7118 21.3959C34.9481 21.188 34.2975 20.6866 33.902 20.001H20.098C19.7024 20.6869 19.0517 21.1885 18.2877 21.3964C17.5238 21.6044 16.7086 21.5018 16.02 21.111C15.939 21.8355 16.0862 22.5673 16.4412 23.2041C16.7962 23.8409 17.3411 24.3509 18 24.663V31H24V29C24 28.2044 24.316 27.4413 24.8787 26.8787C25.4413 26.3161 26.2043 26 27 26C27.7956 26 28.5587 26.3161 29.1213 26.8787C29.6839 27.4413 30 28.2044 30 29V31H36V24.664C36.6588 24.3517 37.2037 23.8414 37.5585 23.2044C37.9133 22.5675 38.0603 21.8356 37.979 21.111Z" fill="white"/>
</g>
<g id="Frame_2" clip-path="url(#clip0_62_1929)">
<path id="Vector_2" d="M17.689 26.3605C17.2951 26.1606 16.9321 26.2106 16.6323 26.1856C14.8437 25.1539 14.8319 24.1589 15.6138 22.4879C16.6955 20.861 18.5781 20.5171 19.9655 19.2531C20.6724 18.2332 20.8973 18.1582 19.8215 17.6262C19.0279 17.5762 18.3518 17.613 17.7022 17.8511C15.6466 18.9357 14.4503 19.5843 14.1133 19.7969C12.4996 20.2349 10.9623 20.4098 10.1172 18.846C9.47939 19.478 9.08552 18.9269 8.60494 18.9269C7.88039 19.6529 6.80459 19.0709 6.4357 18.4081C6.38573 18.195 6.32988 17.9951 6.29167 17.8011C5.84195 17.5762 5.60386 16.9502 5.45395 16.6445C5.20411 16.6312 4.95427 16.6195 4.70295 16.6063C4.40902 16.2374 2.40879 16.5813 2.23978 16.6312C1.31535 16.3682 0.251309 16.0625 0.00146484 15.1733C0.170477 13.9168 1.4829 13.9035 2.47787 13.8477C2.87174 13.373 3.17743 13.3465 3.84025 13.1907C4.27822 12.4089 5.14091 12.065 6.07857 12.065C6.16087 12.1032 6.24758 12.1399 6.34164 12.1958C6.5856 12.0268 7.09117 11.5329 7.79809 11.652C7.81719 11.5829 7.85393 11.5021 7.89214 11.4198C5.44073 11.3889 3.99751 9.76199 7.09852 8.99923C7.34836 8.7244 7.7055 8.65532 7.65406 8.29819C7.75399 7.18418 8.89887 6.69625 10.0173 7.88521C10.1922 7.96017 10.3303 7.9925 10.4494 7.9925C10.5934 7.9734 11.487 7.67358 12.3996 7.77352C12.9434 7.41639 13.3182 7.30469 13.9942 7.69269C14.6571 7.51192 15.9695 7.74266 16.1076 8.66267C16.2575 9.66352 15.2949 9.51949 15.2949 10.0765C16.1267 9.93247 18.0329 10.3205 17.9021 11.4771C18.5149 12.1208 18.44 12.9468 16.9145 13.3348C16.7322 13.01 15.2508 13.1849 14.6571 13.8095C15.7329 13.8903 15.6888 13.7845 16.3516 14.7104C16.3516 16.1183 15.2141 16.3564 14.1691 17.031C13.7076 17.8746 13.9325 18.3816 14.9378 18.5756C15.6888 18.3126 16.5882 18.0627 17.3201 17.5557C18.1387 17.2676 18.9456 16.9737 19.9023 16.9105C20.6695 16.9987 21.1947 17.0428 21.4778 17.0428C21.6101 16.9105 22.7726 16.9737 23.1474 16.9737C23.8851 17.1736 25.5929 17.5557 25.08 18.8446C23.5545 20.4583 21.4528 21.5473 19.5716 22.6172C19.1587 23.0552 18.6957 23.2933 19.2145 23.9311C19.7407 24.1692 20.4461 24.106 21.1339 24.0869C23.1033 23.693 25.0917 22.8039 27.1978 22.8862C28.0046 23.0669 28.8115 23.2551 29.6183 23.4549C30.506 23.8488 31.8434 23.9561 32.7943 24.569C33.6692 24.7688 34.2841 24.9271 34.6387 25.0437C35.0076 25.2568 35.7645 25.0936 36.3024 24.9746C36.3832 24.7365 36.8094 24.5675 37.071 24.4058C37.4267 23.9987 37.415 23.8121 37.415 23.3359C36.5464 22.047 35.0576 21.6281 34.358 20.4083C34.358 19.6764 34.4888 19.6264 35.0209 19.1767V19.0577C34.2008 18.8328 33.8143 19.1767 33.0882 19.4765C31.9066 20.2217 31.5936 20.5156 32.5812 21.7163C33.9068 22.5922 36.276 21.7472 36.276 24.25C36.0761 24.7629 35.6704 24.9878 35.1634 24.9878V24.857C35.5264 24.713 35.8703 24.5572 36.0643 24.1442C36.0643 23.0184 35.4206 22.8994 34.6505 22.4864C33.4072 22.4056 32.1182 22.0352 31.7743 20.8727C31.8552 19.359 32.4239 19.284 33.7511 18.6462C34.7695 18.3963 35.7322 18.727 36.7712 19.2722C37.4032 19.3781 38.5157 19.5721 39.2285 19.2972C39.2168 19.2414 39.2168 19.2032 39.2168 19.1664C39.6297 19.1664 40.1735 18.9416 40.6482 18.7784C41.5727 18.0906 41.0862 17.6527 40.3734 17.153C39.6533 16.9149 38.917 16.7518 38.3159 16.5269C37.4473 16.039 36.9153 15.2689 37.0843 14.3944C36.2025 14.3944 35.9085 14.3944 35.378 13.7742C34.821 12.7102 35.5529 12.8174 35.7542 12.0106C34.8915 11.7857 33.5776 11.8798 33.247 11.048C33.247 10.0912 33.8289 9.3784 34.5594 8.96543C34.5594 8.71558 34.4036 8.67737 34.3477 8.60829C34.3477 7.67064 35.3912 7.42668 36.0423 7.21945C36.2554 6.97549 36.3994 7.03133 36.7742 7.03133C37.5678 6.85644 38.9434 6.40525 38.3306 5.31035C37.8044 4.77832 37.2871 4.60343 36.7051 4.76657C36.6718 4.71268 36.6635 4.64997 36.6801 4.57845C36.2554 4.57845 35.8983 4.75334 35.5926 4.8474C35.5676 4.89737 35.5543 4.94734 35.5426 5.01641C33.4733 5.44262 31.2526 6.68596 29.2524 5.97317C28.1149 5.08549 28.7586 4.51525 29.3714 3.59524C29.5595 3.45121 30.0592 3.13229 30.1092 2.90743C29.1216 1.63763 27.6651 2.12556 26.3013 2.2064C26.264 2.17308 25.7599 2.12115 24.789 2.05061C23.4942 1.70671 22.7373 0.868992 21.7997 0.2047C21.6365 -0.058372 21.3867 -0.483108 21.4558 -0.682983C21.7056 -0.20093 22.1686 0.567709 22.9063 0.667647C23.456 1.02233 23.8499 1.26188 24.0879 1.38632C24.2452 1.43629 25.5326 1.95508 25.9015 1.76843C25.6884 1.63763 25.7017 1.59942 25.6767 1.4936C27.2022 1.79342 28.8659 1.38779 30.5354 1.38779C31.0792 1.53182 32.205 2.43272 31.1483 2.96475C31.1292 3.00296 31.1174 3.05881 31.1042 3.10878C30.678 3.23958 30.5222 3.78482 30.7235 4.27276C31.3305 5.16044 31.3305 5.19277 32.4989 5.44262C33.1867 5.3368 33.8995 5.1237 34.6431 5.00465C35.594 4.52995 36.4435 4.261 37.581 4.31685C37.8559 4.35506 38.8626 4.63577 39.2065 4.43589C39.2604 4.32713 39.3437 4.22083 39.4563 4.11697C39.4691 4.21299 39.4441 4.34036 39.3814 4.49909C40.0824 4.49909 41.289 5.58811 40.8261 6.40672C40.2264 6.66245 39.5504 6.70066 38.9566 6.92552V7.01958C38.2806 7.01958 37.581 7.77646 37.9382 8.39666C38.6127 8.76555 39.1815 7.5516 40.3763 8.40989C41.433 7.97193 43.1143 7.80291 43.5406 9.28581C43.4597 10.3058 42.9027 11.0494 41.846 11.3257C41.1376 11.2924 40.7041 11.2841 40.5454 11.3007C41.0333 11.5388 41.6197 11.6946 42.2399 11.9885C43.0908 11.2758 44.4282 11.3625 45.579 11.3625C45.9479 11.4565 46.5034 11.7255 46.6107 11.7255C46.7856 11.6314 47.5234 11.8254 47.6174 12.1326C48.3743 12.1326 49.262 12.1767 49.7249 13.1026C49.9748 14.6222 48.1054 14.8911 47.0869 14.9161C45.6422 15.8788 43.736 15.31 42.2663 14.997C41.7417 15.1278 41.2479 14.9661 40.879 14.997C40.1103 15.7597 43.129 16.6107 43.4612 16.7047C43.6111 16.8635 43.7654 17.08 43.9241 17.3543C44.0549 18.5051 43.3172 18.824 42.3736 18.9122C40.4293 19.5383 37.9161 20.082 36.1143 19.1811C35.2766 19.1811 34.9194 19.3002 34.5755 20.082C34.6828 21.3019 36.8021 22.1087 37.6574 23.2227C37.8456 23.8664 37.4076 24.0928 37.4076 24.6116C36.1878 25.5242 35.2119 25.5242 33.9362 25.0877C32.5606 24.9187 31.3849 24.1619 30.1415 23.937C28.591 23.355 27.2154 23.0361 25.6532 23.1919C24.9095 23.4167 24.3525 23.5666 23.7587 23.9238C23.6897 23.912 23.6397 23.912 23.5839 23.912C23.5706 23.8562 23.5706 23.8062 23.5706 23.7621C22.8828 23.9252 18.5002 25.2068 18.781 23.2624C19.0058 22.8112 19.4805 22.5496 19.8494 22.2175C21.7438 21.1534 23.3575 20.2657 24.9521 18.7211C25.2402 17.6571 23.9013 17.3955 23.3575 17.1941C22.8402 17.1775 22.3023 17.1858 21.7438 17.2191C22.1568 17.7379 22.6315 18.1759 22.5125 19.0327C21.7556 20.4524 20.061 21.3033 18.7795 22.1102C17.9418 22.8803 16.4589 24.0678 17.7595 25.2185C18.7912 25.6183 20.8414 25.4067 22.1112 25.1803C22.9357 24.8746 23.7308 24.5175 23.9557 24.4675C23.9439 24.5058 23.9439 24.5616 23.9439 24.6116C24.9315 24.4675 26.0191 24.3485 27.0831 24.2927C27.7959 24.4558 28.5087 24.6116 29.2274 24.7865C31.1159 25.5375 33.7099 26.1753 35.9232 26.0445C36.88 25.8064 38.3306 25.5257 38.7553 24.4675C39.18 21.9088 36.4112 22.2028 35.8542 20.8081C35.8542 20.2261 36.1231 19.6323 36.8109 19.7264C36.8109 19.7514 36.8227 19.7763 36.8359 19.8146C35.9791 19.9527 35.885 20.6523 36.3979 21.2842C37.9484 22.0044 39.4431 22.7039 38.9302 24.7688C38.1865 26.0827 35.6043 26.2826 34.3595 26.3076C31.9081 25.8446 29.4758 25.0495 27.1684 24.519C26.6129 24.5322 26.0749 24.544 25.5312 24.5631C23.4927 24.8379 21.541 25.5389 19.6907 26.2018C18.947 26.309 18.3283 26.3458 17.6905 26.3649L17.689 26.3605ZM8.04058 11.1773C8.12729 11.0465 8.22723 10.9333 8.31541 10.8775C7.55265 10.7334 7.06472 10.3396 7.00887 9.30786C4.74557 9.52684 5.4275 11.4345 8.04058 11.1788V11.1773ZM17.689 26.1841C17.5009 25.996 16.9321 26.0401 16.8013 26.0283C15.9945 25.6403 15.5697 25.2156 15.3566 24.4764C15.3566 21.9059 17.276 21.1108 19.2762 20.0659C19.9258 19.5588 20.4461 19.1209 20.84 18.4463C20.84 17.6394 19.8332 17.4954 19.8332 17.2955C20.1639 17.2147 20.5901 17.2265 21.0149 17.2456C21.0266 17.3205 21.0531 17.4014 21.0781 17.4837C21.1221 17.4704 21.1589 17.4528 21.2089 17.4396C21.228 17.4014 21.2397 17.3646 21.2529 17.3337C21.6909 17.2838 22.1906 18.0524 22.3537 18.5036C22.3537 20.1173 19.3585 21.4812 18.271 22.288C17.4274 23.0831 16.2076 24.4778 17.7463 25.4037C18.7222 25.6977 19.7407 25.5918 20.8664 25.5345C20.3418 26.0665 18.365 26.1606 17.6905 26.1856L17.689 26.1841ZM10.154 17.782C10.4347 17.782 10.83 17.8511 11.1607 17.613C11.5164 18.9519 13.3182 19.5588 14.6174 18.9078C15.218 18.7324 15.5658 18.6491 15.6608 18.6579C15.3419 18.871 14.5924 19.2149 13.7532 19.7029C13.0987 19.8195 12.7151 19.9047 12.6024 19.9586C11.3709 19.8278 10.6831 19.6147 10.2583 18.5947C10.2201 18.3125 10.1775 18.0509 10.1525 17.782H10.154ZM41.7975 18.8328C41.7476 19.0151 40.2779 19.2017 40.0912 19.1767C40.3543 19.1076 40.685 19.0136 40.9921 18.8446C41.2552 18.8328 41.5242 18.8328 41.799 18.8328H41.7975ZM10.1158 17.7688C10.0908 17.7805 10.0599 17.7996 10.0349 17.8129C10.0095 17.9549 9.9928 18.2552 9.98496 18.7138C9.21632 19.0459 9.2413 18.8945 8.80334 18.5139C8.20959 19.0151 7.91566 19.1767 7.13379 18.9078C6.40924 18.4448 6.75315 18.2067 6.55327 17.7188C5.57153 16.9737 5.4275 16.4608 6.34017 15.773C7.17788 15.773 7.95975 15.1219 7.59674 14.2092C7.80984 14.2842 8.00972 14.4341 8.29043 14.6722C8.29043 14.7912 8.02148 15.0161 7.91419 15.1101C7.21462 16.2991 8.02147 16.8297 9.21485 17.0677C9.26482 17.1368 9.32067 17.1985 9.37064 17.2808C9.60872 17.4366 9.86445 17.5998 10.1143 17.7688H10.1158ZM13.2667 18.9386C12.4731 18.7887 11.2415 18.3949 11.4664 17.469C11.5296 17.4381 11.5987 17.4249 11.6795 17.4131C11.6486 17.3073 11.6236 17.2132 11.6104 17.1251C11.6354 17.081 11.6795 17.0442 11.7162 17.0001C11.9161 17.0692 12.116 17.15 12.31 17.225C13.4916 17.225 14.5924 15.7553 13.5166 14.9103C13.2917 14.8544 13.0287 14.8044 12.817 14.7662C12.817 14.4473 12.792 14.0843 12.7362 13.9094C12.9993 13.7404 12.9802 13.5846 13.0492 13.3656C13.668 14.0093 15.3757 14.1416 15.6065 14.1034C16.4133 14.7545 16.1693 15.3732 15.4125 16.061C14.9539 16.3069 14.4807 16.5862 13.9928 16.8987C13.6489 17.5175 13.424 18.2494 14.369 18.6565C14.3499 18.6814 14.3381 18.7255 14.3381 18.7623C13.9692 18.8813 13.5754 18.9063 13.2682 18.9372L13.2667 18.9386ZM42.0224 18.7388C42.4354 17.901 42.3971 17.707 41.8416 17.0677C41.6545 16.9423 41.3439 16.788 40.9098 16.6048C40.8966 16.5489 40.8849 16.499 40.8731 16.4608C41.098 16.4167 41.336 16.3799 41.5727 16.3549C41.9489 16.4857 43.7169 16.9487 43.5744 17.8496C43.2172 18.2626 42.5676 18.7373 42.0239 18.7373L42.0224 18.7388ZM41.2978 18.6697C41.9739 16.643 39.0713 16.7488 38.1219 16.1801C37.4958 15.5599 37.1401 15.1733 37.3532 14.4341C37.484 14.4341 37.509 14.3782 37.7471 14.5223C37.7089 14.4032 37.6281 14.3283 37.6163 14.1784C38.21 14.4723 38.504 14.6031 39.2858 14.5664C39.2858 15.2292 39.2741 15.3232 39.618 16.061H39.7121C40.1059 16.7371 42.7014 17.1059 41.9195 18.4198C41.7064 18.5007 41.5006 18.5756 41.3008 18.6697H41.2978ZM10.5537 17.5865C9.92911 17.5307 9.57198 17.2235 9.44118 16.7606C8.34039 16.8414 7.97151 16.6283 7.89067 15.6348C8.04646 15.2659 8.14052 15.2159 8.4227 14.972C8.51676 14.9911 8.62257 15.0028 8.72251 15.0161C8.74162 14.972 8.75337 14.947 8.7666 14.922C9.42942 15.0278 9.86739 15.1851 10.5802 14.803C10.8183 14.803 11.1622 15.1101 11.1622 15.504C10.7242 16.036 10.2745 16.449 9.79831 15.8729H9.64253C9.64253 16.2359 10.0364 16.449 10.5111 16.3917C11.2548 15.8597 11.5987 15.5158 11.1489 14.8397C11.0549 14.7648 10.9608 14.6957 10.8741 14.6266C10.9358 14.5076 11.0181 14.3885 11.099 14.2827C11.6369 14.3768 11.9558 14.2445 12.5686 14.1637C12.6054 14.4209 12.4878 14.7457 12.5495 15.0513C13.1492 15.0513 13.8252 14.9323 13.7194 15.9405C13.4255 16.7606 12.8817 17.1353 12.0249 16.9105C11.8456 16.7684 11.7123 16.6832 11.6251 16.6548C11.3062 17.1236 11.1004 17.5175 10.5552 17.5865H10.5537ZM40.635 16.4608C39.7091 15.967 39.3343 15.4658 39.5592 14.5531C39.6665 14.4973 39.7723 14.4473 39.8781 14.39C39.9031 14.4458 40.4601 14.7221 40.635 14.8147C40.516 15.5275 40.4601 15.5584 41.1788 16.0963C41.1788 16.2594 40.7541 16.4284 40.635 16.4593V16.4608ZM2.14572 16.4167C2.09085 16.3745 1.86991 16.3099 1.4829 16.2227C0.370353 15.5966 -0.305697 15.1087 0.864163 14.2827C1.32711 14.1269 1.73421 13.9388 2.33384 14.1519C2.50285 14.8838 2.69097 15.3027 3.57865 15.5966C4.47907 15.7298 4.94594 15.8131 4.97925 15.8464C5.41329 15.821 5.70919 15.821 5.86693 15.8464C5.74789 16.0213 5.62885 16.1903 5.5098 16.3785C5.25996 16.3535 4.87196 16.2594 4.76615 16.2227C3.89757 16.2844 3.02164 16.3535 2.14719 16.4167H2.14572ZM4.88372 15.5848C3.62715 15.2527 2.58221 15.3967 2.67627 13.952C2.97608 13.5699 3.22005 13.5332 3.73297 13.4391C3.82703 13.5023 3.83878 13.5332 3.94607 13.783C4.70295 14.3768 5.41574 14.7897 6.09032 13.783C6.09032 13.0144 4.88372 13.0394 4.92634 13.4274C5.25849 13.4274 5.50833 13.3333 5.82725 13.5831C5.82725 14.1019 5.30846 14.1401 4.92634 14.1401C2.97608 13.3583 4.72647 12.3266 5.98304 12.3266C6.06387 12.3516 6.14617 12.3956 6.22112 12.4324C6.22112 13.3833 6.2902 13.8212 7.30868 14.2842C7.57175 14.8162 7.37041 15.2292 6.84574 15.4658C6.10208 15.4658 5.54507 15.5716 4.88225 15.5848H4.88372ZM44.343 15.2277C43.6934 15.1336 43.0732 14.972 42.5676 14.828V14.7089C43.5611 13.6081 42.8998 12.7631 41.6667 13.082C41.5859 13.107 41.5227 13.1452 41.4536 13.1878C41.4404 13.2245 41.4404 13.276 41.4404 13.3318C41.8534 13.3318 42.3971 12.9629 42.8601 13.5449C42.8601 14.4708 42.1282 14.9455 41.2038 14.803C40.6718 14.5781 39.9839 14.2842 39.7223 13.9403C39.7223 13.3583 40.1721 13.3833 40.4351 13.0394C40.3411 12.9321 40.2544 12.8454 40.1721 12.7513C40.2779 12.2193 40.9289 11.9445 41.4536 11.9253C41.9724 12.1135 42.2105 12.2575 42.3163 12.2693C42.791 11.5065 44.2607 11.6123 45.0793 11.5432C46.1301 11.5932 47.1236 12.0062 46.5372 13.3068C45.8612 13.689 45.1249 13.8065 44.7927 13.132C44.7927 12.6822 44.7795 12.6822 45.1866 12.5382C45.2057 12.4824 45.2175 12.4441 45.2307 12.4074C44.5429 12.4074 44.5561 12.6205 44.5928 13.2525C45.1249 14.2224 46.2874 13.9153 46.9252 13.1084C46.9585 12.6999 46.9629 12.4079 46.9384 12.2325C46.8424 12.0659 46.7988 11.9552 46.8076 11.9004C47.7203 12.1385 47.7071 12.719 47.5895 13.6772C46.8576 15.3041 46.0008 15.1351 44.3445 15.2292L44.343 15.2277ZM7.97298 13.9961C5.69057 13.9829 6.00949 11.4374 8.02295 11.9253C8.00972 11.4565 8.24193 10.4616 9.79243 11.1626C10.6669 10.7496 10.8991 11.3874 10.711 11.6946C12.0366 12.1076 11.1416 12.8204 10.517 12.6146C10.467 13.0967 10.0099 13.3524 9.62342 13.3847C8.71075 13.4538 8.2919 12.2707 9.45441 12.1517C9.44118 12.1149 9.42942 12.0885 9.4162 12.0635C8.23458 11.7696 8.11553 13.6081 9.61019 13.6081C10.2157 13.5523 10.4288 13.3083 10.6287 12.8953C11.6663 12.8953 12.041 11.9445 11.0358 11.5256C12.5113 10.8745 13.7429 12.4206 12.6862 13.3083C12.8861 13.9153 11.5355 14.3591 11.1974 13.808H11.0666C11.0666 14.5281 9.28393 15.554 7.97151 13.9961H7.97298ZM47.2324 14.7339C47.8511 14.0079 47.9452 13.1893 47.782 12.3133C48.7888 12.3133 50.1394 12.8953 49.165 14.1269C48.5521 14.5517 47.8643 14.6707 47.2324 14.7339ZM38.554 14.39C37.6413 14.0578 37.6031 13.758 37.5663 13.0144C38.1601 11.9827 38.9669 12.1825 40.0545 12.2075C40.0662 12.2457 40.0795 12.2884 40.0912 12.3383C39.9472 12.5632 39.8296 12.6822 40.0545 13.0261C39.8664 13.3451 39.5475 13.4641 39.4725 13.952C39.5303 14.0774 39.5592 14.1715 39.5592 14.2342C39.3902 14.4032 38.7156 14.39 38.5525 14.39H38.554ZM36.3597 14.2078C35.353 13.808 35.1281 13.1569 35.7351 12.3618C36.3597 11.993 36.0423 12.0988 36.7536 12.4059C36.7404 12.3251 36.7404 12.256 36.7404 12.1928C36.8903 12.1928 37.0549 12.2178 37.2342 12.2678C38.091 11.023 39.4857 11.1038 40.8599 11.7299C40.8599 11.8489 40.5542 11.993 40.4351 12.062C39.0213 11.8372 36.6772 11.9812 37.4958 14.0329C37.0578 14.1137 36.6772 14.196 36.3583 14.2078H36.3597ZM14.225 13.7698C14.0001 13.6067 13.4372 13.47 13.3931 13.3627C15.1009 12.6675 15.6006 11.4551 14.444 10.4968C14.8153 10.3714 15.0632 10.3048 15.1876 10.2969C15.9313 10.2602 17.5699 10.1162 17.6758 11.6476C18.3004 11.9107 17.7698 13.0673 16.8689 13.0673C16.381 12.5794 14.5939 13.3362 14.2235 13.7683L14.225 13.7698ZM13.2623 13.2128C13.568 11.8298 12.7876 10.8789 10.9491 11.2919C10.9182 11.1538 10.8873 11.1788 10.805 10.973C10.8433 10.898 11.3988 10.6291 11.4679 10.5101C11.825 10.6041 12.3129 10.6908 12.6994 10.4292C13.1374 10.5101 13.6004 10.6923 14.1559 10.6541C15.7622 11.4242 14.394 12.9629 13.2623 13.2128ZM35.7087 9.13444C35.5396 9.52831 35.4206 9.69144 35.4588 10.2426C36.0026 10.9054 36.6904 11.5682 37.7471 11.3434V11.3551C37.4973 11.5682 37.2459 11.8739 36.9961 11.968C35.8703 11.7299 34.5197 11.7681 33.6012 11.2493C33.0765 10.3484 34.0832 9.34754 34.9018 9.10357C35.3182 9.09476 35.5872 9.10504 35.7087 9.13444ZM37.7471 11.3551V11.3434C37.7471 11.2802 37.7589 11.2126 37.778 11.1435C37.6281 11.1303 37.415 11.2243 37.071 11.2243C35.6264 10.5365 35.3765 10.2044 36.1202 8.97277C36.2956 8.80621 36.4665 8.67492 36.6331 8.5789C37.0211 8.5789 37.8147 8.47308 37.9338 9.06683C37.9705 9.07859 38.0146 9.10504 38.0528 9.13591C38.5525 8.69794 38.9655 8.07186 39.8164 8.30995C40.2794 8.59213 40.491 8.792 40.6232 9.47981C40.2103 9.92953 39.8032 10.2176 39.2153 9.99273C38.9772 9.75464 38.7524 9.41074 38.5407 9.54154C39.0727 10.6056 40.7158 10.4983 40.8481 9.20939C40.7173 8.86549 40.7041 8.79053 40.7291 8.50836H40.804V8.42752C41.0597 8.33934 42.2237 8.20266 42.4471 8.42752C43.0041 8.52158 43.3363 8.90958 43.3363 9.58416C42.7425 11.2361 41.8798 11.0538 40.3043 11.0671C40.2793 11.1053 40.2544 11.142 40.2353 11.1979C39.1668 10.998 38.7538 11.023 37.7471 11.3536V11.3551ZM8.71075 10.3675C7.56 11.1611 6.55327 9.14767 7.92889 8.60389C7.53501 7.72208 9.02967 6.51401 9.78508 8.17915C9.89237 8.16004 10.2862 8.14829 10.6096 8.25998C11.5854 8.59213 10.6786 10.0236 9.87767 8.91105C9.82183 8.88018 9.78362 8.86696 9.74687 8.8552C9.68956 9.16824 10.0026 9.5239 10.3965 9.53125C11.847 9.53713 11.0902 8.09832 10.9211 8.11742C13.6033 7.08571 13.4916 11.3772 11.4399 10.1823C10.589 11.1641 9.21485 11.0832 8.70781 10.3704L8.71075 10.3675ZM13.3623 10.3675C13.1751 10.3136 13.0502 10.2592 12.9875 10.2044C13.4372 9.22262 13.2432 8.81552 12.6054 8.09685V7.91608C13.0683 7.40904 13.5313 7.66623 14.0868 8.01014C15.3066 7.37818 16.8998 9.02421 15.2126 9.52978C14.9054 10.3249 14.0236 10.2984 13.3608 10.3675H13.3623ZM35.766 9.04038C35.353 8.89635 34.5021 8.77143 34.5844 8.35257C34.7842 8.12771 35.1531 7.5707 35.5543 7.66476C35.3545 8.08362 35.1664 8.47161 35.7924 8.85373C35.8091 8.93309 35.8008 8.9958 35.7674 9.04185L35.766 9.04038ZM35.96 8.73322C35.1972 8.2203 35.7792 7.56923 36.3847 7.33262C36.6096 7.27677 36.8344 7.23856 37.0725 7.19447C36.9652 7.62067 36.4905 7.67652 36.5596 8.30848C36.3597 8.44663 36.1599 8.59066 35.9585 8.73322H35.96ZM37.5546 8.42605C37.4625 8.37609 37.2185 8.31975 36.8227 8.25704C36.6669 7.46195 37.4973 7.15626 38.1351 6.98724C38.1601 6.999 38.1851 7.02399 38.2115 7.05044C37.8985 7.4884 37.487 7.7941 37.6428 8.37609C37.6045 8.38931 37.5796 8.40107 37.5546 8.42605ZM38.2791 6.74328C38.2791 6.54928 38.529 6.33618 38.6612 6.19215C38.7171 5.34121 38.4922 5.15456 37.9484 4.74746C37.9367 4.70337 37.9235 4.67839 37.9235 4.6534C38.2424 4.64164 38.5745 4.67839 39.0051 4.89149V4.98555C39.6298 5.04874 39.9369 5.61751 39.8046 6.34941C39.6547 6.37439 39.5107 6.39937 39.3799 6.43024C39.205 6.69331 38.504 6.73005 38.2791 6.74328ZM40.2117 6.37439C40.1618 6.33618 40.1059 6.31119 40.0677 6.28033C40.0677 5.63514 39.9369 5.35444 39.6298 4.97232C39.4798 4.88512 39.3966 4.8185 39.3799 4.77245C39.9237 4.77245 41.4433 6.03049 40.2117 6.37439ZM30.8646 6.01726C29.3141 5.74243 29.2759 3.74073 30.5339 3.32776C30.2576 4.24042 30.5457 4.32273 31.0895 5.16632C31.1586 5.22217 31.2335 5.29124 31.3143 5.35444C31.7273 5.52933 32.1212 5.61751 32.1212 5.6616C31.646 5.82816 31.2271 5.94721 30.8646 6.01873V6.01726ZM29.7388 5.94818C28.4014 5.36619 28.7321 4.77245 29.4508 3.87154C29.6889 3.65892 29.8432 3.54429 29.9137 3.52763C29.2068 4.57257 29.2759 4.82241 30.0078 5.94818H29.7388ZM30.4707 2.93241C29.489 1.86837 29.1583 1.96243 27.8885 1.8816C27.7563 2.0124 26.5629 1.98741 26.313 1.97566C26.3013 1.95067 26.2822 1.92569 26.2822 1.91246C26.9068 1.76255 27.7269 1.78754 28.4455 1.76255C29.5272 1.61853 30.603 1.16881 31.3408 2.28135C31.2658 2.73107 30.8411 2.81337 30.4722 2.93241H30.4707Z" fill="#D0BE92"/>
</g>
</g>
</g>
<defs>
<clipPath id="clip0_62_1929">
<rect width="54" height="54" fill="white"/>
</clipPath>
</defs>
</svg>
