<svg width="55" height="55" viewBox="0 0 55 55" fill="none" xmlns="http://www.w3.org/2000/svg">
<g id="Tab 1">
<g id="Frame">
<path id="Vector" d="M33.3056 20.2916V18.3776H35.5556L35.7131 18.3641C36.5036 18.2246 36.5036 17.0306 35.7131 16.8911L35.5556 16.8776C34.7876 16.8776 33.5531 16.2131 31.9076 14.8826L31.3076 14.3876C31.0954 14.2055 30.8854 14.021 30.6776 13.8341L30.0131 13.2281L29.6681 12.9026L28.9541 12.2126C28.8311 12.0911 28.7086 11.9691 28.5866 11.8466C28.5168 11.777 28.434 11.7218 28.3429 11.6842C28.2518 11.6466 28.1541 11.6274 28.0556 11.6276H26.5556C26.457 11.6274 26.3594 11.6466 26.2683 11.6842C26.1772 11.7218 26.0943 11.777 26.0246 11.8466L25.6571 12.2126L24.9431 12.9026L24.5981 13.2281L23.9336 13.8341C23.7257 14.0205 23.5157 14.2045 23.3036 14.3861L22.7036 14.8841C21.1556 16.1351 19.9706 16.7966 19.1966 16.8701L19.0556 16.8776C18.1106 16.8776 18.0581 18.2156 18.8981 18.3641L19.0556 18.3776H21.3056V20.2901L21.1781 20.3921C20.2886 21.0356 18.8351 21.3776 16.8056 21.3776C16.7058 21.3775 16.607 21.3974 16.515 21.4361C16.4231 21.4747 16.3397 21.5313 16.2699 21.6025C16.2 21.6738 16.1451 21.7582 16.1083 21.8509C16.0715 21.9437 16.0536 22.0428 16.0556 22.1426V22.1891C16.0766 22.8866 16.2176 23.7131 16.5791 24.5021L16.6961 24.7421C17.1911 25.6766 17.9501 26.3231 18.9806 26.5436L19.0556 26.5571V32.6276C19.0556 32.8265 19.1346 33.0172 19.2752 33.1579C19.4159 33.2985 19.6067 33.3776 19.8056 33.3776H24.3056L24.4406 33.3656C24.6132 33.334 24.7694 33.2428 24.8817 33.108C24.9941 32.9731 25.0556 32.8031 25.0556 32.6276V28.1276H29.5556V32.6276C29.5556 32.8265 29.6346 33.0172 29.7752 33.1579C29.9159 33.2985 30.1067 33.3776 30.3056 33.3776H34.8056L34.9406 33.3656C35.1132 33.334 35.2694 33.2428 35.3817 33.108C35.4941 32.9731 35.5556 32.8031 35.5556 32.6276V26.5571L35.6291 26.5451C36.8291 26.2901 37.6541 25.4621 38.1266 24.2801C38.401 23.5951 38.5465 22.8654 38.5556 22.1276C38.5556 21.9287 38.4766 21.7379 38.3359 21.5972C38.1952 21.4566 38.0045 21.3776 37.8056 21.3776L37.3796 21.3731C35.5706 21.3281 34.2596 20.9891 33.4331 20.3921L33.3056 20.2916ZM26.8631 13.1276H27.7466L27.9116 13.2926C29.4416 14.7986 30.7841 15.9701 31.9526 16.8071L32.1881 16.9736C32.0723 17.0392 31.976 17.1342 31.9088 17.2491C31.8416 17.3639 31.806 17.4945 31.8056 17.6276V20.6276C31.8054 20.7261 31.8246 20.8237 31.8622 20.9149C31.8998 21.006 31.955 21.0888 32.0246 21.1586L32.2391 21.3581C33.2741 22.2581 34.8281 22.7471 36.8906 22.8551L36.9761 22.8566L36.9071 23.1821C36.8621 23.3681 36.8036 23.5511 36.7346 23.7236C36.3701 24.6341 35.7776 25.1276 34.8056 25.1276L34.6706 25.1396C34.4979 25.1712 34.3418 25.2623 34.2294 25.3972C34.117 25.532 34.0555 25.702 34.0556 25.8776V31.8776H31.0556V27.3776C31.0556 27.1787 30.9766 26.9879 30.8359 26.8472C30.6952 26.7066 30.5045 26.6276 30.3056 26.6276H24.3056L24.1706 26.6396C23.9979 26.6712 23.8418 26.7623 23.7294 26.8972C23.617 27.032 23.5555 27.202 23.5556 27.3776V31.8776H20.5556V25.8776C20.5556 25.6787 20.4766 25.4879 20.3359 25.3472C20.1952 25.2066 20.0045 25.1276 19.8056 25.1276C18.8891 25.1276 18.3146 24.6911 17.9426 23.8781L17.8241 23.5871C17.7544 23.3927 17.6982 23.1937 17.6561 22.9916L17.6321 22.8566L17.7206 22.8551C19.9301 22.7396 21.5561 22.1876 22.5866 21.1586C22.6562 21.0888 22.7113 21.006 22.7489 20.9149C22.7865 20.8237 22.8057 20.7261 22.8056 20.6276V17.6276L22.7936 17.4926C22.7733 17.3841 22.7295 17.2814 22.6652 17.1918C22.6009 17.1021 22.5178 17.0276 22.4216 16.9736L22.6586 16.8086C23.7101 16.0541 24.9026 15.0296 26.2451 13.7336L26.8631 13.1276Z" fill="white" fill-opacity="0.7"/>
</g>
</g>
</svg>
