<svg width="49" height="50" viewBox="0 0 49 50" fill="none" xmlns="http://www.w3.org/2000/svg">
<g id="Tab 5">
<path id="&#244;&#128;&#137;&#169;" d="M24.5 20.8268C22.1758 20.8268 20.2812 18.776 20.2812 16.2662C20.2812 13.7858 22.1855 11.7838 24.5 11.7838C26.834 11.7838 28.7188 13.7467 28.7188 16.2467C28.7188 18.7662 26.8242 20.8268 24.5 20.8268ZM24.5 19.3522C25.9355 19.3522 27.1465 17.9752 27.1465 16.2467C27.1465 14.5377 25.9551 13.2584 24.5 13.2584C23.0547 13.2584 21.8535 14.567 21.8535 16.2662C21.8535 17.9948 23.0742 19.3522 24.5 19.3522ZM18.3574 29.8698C16.7363 29.8698 15.9648 29.3815 15.9648 28.3073C15.9648 25.7487 19.1973 22.0475 24.5 22.0475C29.793 22.0475 33.0254 25.7487 33.0254 28.3073C33.0254 29.3815 32.2539 29.8698 30.6328 29.8698H18.3574ZM17.8984 28.3951H31.1016C31.3555 28.3951 31.4531 28.3268 31.4531 28.1217C31.4531 26.5104 28.9727 23.5221 24.5 23.5221C20.0176 23.5221 17.5371 26.5104 17.5371 28.1217C17.5371 28.3268 17.6445 28.3951 17.8984 28.3951Z" fill="white" fill-opacity="0.7"/>
</g>
</svg>
