<svg width="50" height="50" viewBox="0 0 50 50" fill="none" xmlns="http://www.w3.org/2000/svg">
<g id="Tab 5" clip-path="url(#clip0_62_2258)">
<g id="Group 427319171">
<g id="Frame">
<path id="Vector" d="M25.7084 21.174C22.8134 21.174 20.4584 18.8189 20.4584 15.924C20.4584 13.029 22.8134 10.674 25.7084 10.674C28.6034 10.674 30.9584 13.029 30.9584 15.924C30.9584 18.8189 28.6034 21.174 25.7084 21.174ZM35.4584 30.174H15.9584C15.8452 30.1738 15.7336 30.1481 15.6317 30.0988C15.5299 30.0495 15.4405 29.9778 15.3702 29.8891C15.2999 29.8005 15.2505 29.6971 15.2258 29.5866C15.201 29.4762 15.2015 29.3617 15.2271 29.2514C16.2809 24.8002 20.3909 21.924 25.7084 21.924C31.0221 21.924 35.1359 24.8002 36.1896 29.2514C36.2155 29.3617 36.216 29.4763 36.1913 29.5868C36.1666 29.6972 36.1173 29.8007 36.0469 29.8894C35.9766 29.9781 35.8872 30.0498 35.7852 30.0991C35.6833 30.1483 35.5716 30.1739 35.4584 30.174Z" fill="white"/>
</g>
<path id="Vector_2" d="M18.3975 26.9122C18.0036 26.7124 17.6406 26.7623 17.3408 26.7374C15.5522 25.7056 15.5404 24.7107 16.3223 23.0397C17.404 21.4127 19.2866 21.0688 20.674 19.8049C21.3809 18.7849 21.6058 18.71 20.53 18.178C19.7364 18.128 19.0603 18.1647 18.4107 18.4028C16.3551 19.4874 15.1588 20.1361 14.8218 20.3487C13.2081 20.7866 11.6708 20.9615 10.8257 19.3978C10.1879 20.0298 9.79401 19.4786 9.31343 19.4786C8.58888 20.2047 7.51308 19.6227 7.14419 18.9598C7.09422 18.7467 7.03838 18.5469 7.00017 18.3529C6.55045 18.128 6.31236 17.5019 6.16245 17.1962C5.91261 17.183 5.66276 17.1712 5.41145 17.158C5.11751 16.7891 3.11729 17.133 2.94827 17.183C2.02385 16.9199 0.959806 16.6142 0.709961 15.7251C0.878973 14.4685 2.19139 14.4553 3.18636 14.3994C3.58023 13.9247 3.88593 13.8983 4.54875 13.7425C4.98671 12.9606 5.84941 12.6167 6.78706 12.6167C6.86936 12.6549 6.95608 12.6917 7.05013 12.7475C7.2941 12.5785 7.79967 12.0847 8.50658 12.2037C8.52569 12.1347 8.56243 12.0538 8.60064 11.9715C6.14922 11.9407 4.706 10.3137 7.80702 9.55099C8.05686 9.27616 8.41399 9.20708 8.36255 8.84995C8.46249 7.73594 9.60737 7.24801 10.7258 8.43697C10.9007 8.51193 11.0388 8.54426 11.1579 8.54426C11.3019 8.52515 12.1955 8.22534 13.1081 8.32528C13.6519 7.96815 14.0267 7.85645 14.7027 8.24445C15.3655 8.06368 16.678 8.29441 16.8161 9.21443C16.966 10.2153 16.0034 10.0712 16.0034 10.6283C16.8352 10.4842 18.7414 10.8722 18.6106 12.0289C19.2234 12.6726 19.1485 13.4985 17.623 13.8865C17.4407 13.5617 15.9593 13.7366 15.3656 14.3612C16.4414 14.4421 16.3973 14.3362 17.0601 15.2621C17.0601 16.6701 15.9226 16.9082 14.8776 17.5828C14.4161 18.4263 14.641 18.9334 15.6463 19.1274C16.3973 18.8643 17.2967 18.6145 18.0286 18.1074C18.8472 17.8194 19.6541 17.5254 20.6108 17.4622C21.378 17.5504 21.9031 17.5945 22.1863 17.5945C22.3186 17.4622 23.4811 17.5254 23.8559 17.5254C24.5936 17.7253 26.3014 18.1074 25.7885 19.3963C24.263 21.01 22.1613 22.0991 20.2801 23.169C19.8672 23.6069 19.4042 23.845 19.923 24.4829C20.4492 24.721 21.1546 24.6578 21.8424 24.6387C23.8118 24.2448 25.8002 23.3556 27.9063 23.4379C28.7131 23.6187 29.52 23.8068 30.3268 24.0067C31.2145 24.4006 32.5519 24.5079 33.5028 25.1207C34.3777 25.3206 34.9926 25.4788 35.3472 25.5954C35.7161 25.8085 36.473 25.6454 37.0109 25.5263C37.0917 25.2883 37.5179 25.1192 37.7795 24.9576C38.1352 24.5505 38.1235 24.3638 38.1235 23.8877C37.2549 22.5987 35.7661 22.1799 35.0665 20.9601C35.0665 20.2282 35.1973 20.1782 35.7294 19.7285V19.6094C34.9093 19.3846 34.5227 19.7285 33.7967 20.0283C32.6151 20.7734 32.3021 21.0674 33.2897 22.2681C34.6153 23.144 36.9845 22.2989 36.9845 24.8018C36.7846 25.3147 36.3789 25.5396 35.8719 25.5396V25.4088C36.2349 25.2647 36.5788 25.109 36.7728 24.696C36.7728 23.5702 36.1291 23.4512 35.359 23.0382C34.1157 22.9574 32.8267 22.587 32.4828 21.4245C32.5637 19.9107 33.1324 19.8358 34.4596 19.1979C35.478 18.9481 36.4407 19.2788 37.4797 19.824C38.1117 19.9298 39.2242 20.1238 39.937 19.849C39.9253 19.7931 39.9253 19.7549 39.9253 19.7182C40.3382 19.7182 40.882 19.4933 41.3567 19.3302C42.2812 18.6424 41.7947 18.2044 41.0819 17.7047C40.3618 17.4666 39.6255 17.3035 39.0244 17.0787C38.1558 16.5907 37.6238 15.8206 37.7928 14.9462C36.911 14.9462 36.617 14.9462 36.0865 14.326C35.5295 13.2619 36.2614 13.3692 36.4627 12.5623C35.6 12.3375 34.2861 12.4315 33.9555 11.5997C33.9555 10.643 34.5374 9.93016 35.2679 9.51718C35.2679 9.26734 35.1121 9.22913 35.0562 9.16005C35.0562 8.2224 36.0997 7.97843 36.7508 7.77121C36.9639 7.52724 37.1079 7.58309 37.4827 7.58309C38.2763 7.4082 39.6519 6.95701 39.0391 5.8621C38.5129 5.33008 37.9956 5.15519 37.4136 5.31833C37.3803 5.26444 37.372 5.20173 37.3886 5.13021C36.9639 5.13021 36.6067 5.3051 36.3011 5.39916C36.2761 5.44913 36.2628 5.49909 36.2511 5.56817C34.1818 5.99437 31.9611 7.23772 29.9609 6.52493C28.8234 5.63724 29.4671 5.06701 30.0799 4.14699C30.268 4.00297 30.7677 3.68405 30.8177 3.45919C29.8301 2.18939 28.3736 2.67732 27.0098 2.75815C26.9725 2.72484 26.4684 2.67291 25.4975 2.60237C24.2027 2.25846 23.4458 1.42075 22.5082 0.756457C22.345 0.493386 22.0952 0.0686501 22.1643 -0.131226C22.4141 0.350827 22.8771 1.11947 23.6148 1.2194C24.1645 1.57409 24.5584 1.81364 24.7964 1.93808C24.9537 1.98804 26.2411 2.50684 26.61 2.32019C26.3969 2.18939 26.4101 2.15118 26.3852 2.04536C27.9107 2.34518 29.5744 1.93954 31.2439 1.93954C31.7877 2.08357 32.9135 2.98448 31.8568 3.5165C31.8377 3.55472 31.8259 3.61056 31.8127 3.66053C31.3865 3.79133 31.2307 4.33658 31.432 4.82451C32.039 5.7122 32.039 5.74453 33.2074 5.99438C33.8952 5.88856 34.608 5.67546 35.3516 5.55641C36.3025 5.08171 37.152 4.81276 38.2895 4.8686C38.5644 4.90682 39.5711 5.18752 39.915 4.98765C39.9689 4.87889 40.0522 4.77259 40.1648 4.66873C40.1776 4.76475 40.1526 4.89212 40.0899 5.05084C40.7909 5.05084 41.9975 6.13987 41.5346 6.95848C40.9349 7.2142 40.2589 7.25242 39.6651 7.47728V7.57133C38.9891 7.57133 38.2895 8.32822 38.6467 8.94842C39.3212 9.31731 39.89 8.10336 41.0848 8.96165C42.1415 8.52368 43.8228 8.35467 44.2491 9.83757C44.1682 10.8575 43.6112 11.6012 42.5545 11.8775C41.8461 11.8442 41.4126 11.8358 41.2539 11.8525C41.7418 12.0906 42.3282 12.2464 42.9484 12.5403C43.7993 11.8275 45.1367 11.9142 46.2875 11.9142C46.6564 12.0083 47.2119 12.2772 47.3192 12.2772C47.4941 12.1832 48.2319 12.3772 48.3259 12.6843C49.0828 12.6843 49.9705 12.7284 50.4334 13.6543C50.6833 15.174 48.8139 15.4429 47.7954 15.4679C46.3507 16.4305 44.4445 15.8618 42.9748 15.5487C42.4502 15.6795 41.9564 15.5179 41.5875 15.5487C40.8188 16.3115 43.8375 17.1624 44.1697 17.2565C44.3196 17.4152 44.4739 17.6317 44.6326 17.9061C44.7634 19.0568 44.0257 19.3758 43.0821 19.4639C41.1378 20.09 38.6246 20.6338 36.8228 19.7329C35.9851 19.7329 35.6279 19.8519 35.284 20.6338C35.3913 21.8536 37.5106 22.6605 38.3659 23.7745C38.5541 24.4182 38.1161 24.6445 38.1161 25.1633C36.8963 26.076 35.9204 26.076 34.6447 25.6395C33.2691 25.4705 32.0934 24.7136 30.85 24.4888C29.2995 23.9068 27.9239 23.5878 26.3616 23.7436C25.618 23.9685 25.061 24.1184 24.4672 24.4755C24.3982 24.4638 24.3482 24.4638 24.2923 24.4638C24.2791 24.4079 24.2791 24.3579 24.2791 24.3139C23.5913 24.477 19.2087 25.7585 19.4895 23.8142C19.7143 23.363 20.189 23.1014 20.5579 22.7692C22.4523 21.7052 24.066 20.8175 25.6606 19.2729C25.9487 18.2088 24.6098 17.9472 24.066 17.7459C23.5487 17.7292 23.0108 17.7376 22.4523 17.7709C22.8653 18.2897 23.34 18.7276 23.221 19.5844C22.4641 21.0042 20.7695 21.8551 19.488 22.6619C18.6503 23.4321 17.1674 24.6196 18.468 25.7703C19.4997 26.1701 21.5499 25.9584 22.8197 25.7321C23.6442 25.4264 24.4393 25.0693 24.6642 25.0193C24.6524 25.0575 24.6524 25.1134 24.6524 25.1633C25.64 25.0193 26.7276 24.9003 27.7916 24.8444C28.5044 25.0075 29.2172 25.1633 29.9359 25.3382C31.8244 26.0892 34.4184 26.7271 36.6317 26.5963C37.5885 26.3582 39.0391 26.0775 39.4638 25.0193C39.8885 22.4606 37.1197 22.7545 36.5627 21.3598C36.5627 20.7778 36.8316 20.1841 37.5194 20.2781C37.5194 20.3031 37.5312 20.3281 37.5444 20.3663C36.6876 20.5045 36.5935 21.204 37.1064 21.836C38.6569 22.5561 40.1516 23.2557 39.6387 25.3206C38.895 26.6345 36.3128 26.8343 35.068 26.8593C32.6166 26.3964 30.1843 25.6013 27.8769 25.0707C27.3213 25.084 26.7834 25.0957 26.2397 25.1148C24.2012 25.3897 22.2495 26.0907 20.3992 26.7535C19.6555 26.8608 19.0368 26.8975 18.399 26.9167L18.3975 26.9122ZM8.74908 11.729C8.83579 11.5982 8.93573 11.4851 9.02391 11.4292C8.26115 11.2852 7.77321 10.8913 7.71737 9.85962C5.45407 10.0786 6.136 11.9862 8.74908 11.7305V11.729ZM18.3975 26.7359C18.2094 26.5478 17.6406 26.5919 17.5098 26.5801C16.703 26.1921 16.2782 25.7674 16.0651 25.0281C16.0651 22.4577 17.9845 21.6626 19.9847 20.6176C20.6343 20.1106 21.1546 19.6726 21.5485 18.998C21.5485 18.1912 20.5417 18.0472 20.5417 17.8473C20.8724 17.7665 21.2986 17.7782 21.7234 17.7973C21.7351 17.8723 21.7616 17.9531 21.7866 18.0354C21.8306 18.0222 21.8674 18.0046 21.9174 17.9913C21.9365 17.9531 21.9482 17.9164 21.9614 17.8855C22.3994 17.8355 22.8991 18.6042 23.0622 19.0554C23.0622 20.6691 20.067 22.0329 18.9795 22.8398C18.1359 23.6349 16.9161 25.0296 18.4548 25.9555C19.4307 26.2494 20.4492 26.1436 21.5749 26.0863C21.0502 26.6183 19.0735 26.7124 18.399 26.7374L18.3975 26.7359ZM10.8625 18.3338C11.1432 18.3338 11.5385 18.4028 11.8692 18.1647C12.2249 19.5036 14.0267 20.1106 15.3259 19.4595C15.9265 19.2841 16.2743 19.2009 16.3693 19.2097C16.0504 19.4228 15.3009 19.7667 14.4617 20.2546C13.8072 20.3712 13.4236 20.4565 13.3109 20.5103C12.0794 20.3795 11.3916 20.1664 10.9668 19.1465C10.9286 18.8643 10.886 18.6027 10.861 18.3338H10.8625ZM42.506 19.3846C42.4561 19.5668 40.9864 19.7535 40.7997 19.7285C41.0628 19.6594 41.3935 19.5653 41.7006 19.3963C41.9637 19.3846 42.2327 19.3846 42.5075 19.3846H42.506ZM10.8243 18.3205C10.7993 18.3323 10.7684 18.3514 10.7434 18.3646C10.718 18.5067 10.7013 18.807 10.6935 19.2655C9.92482 19.5977 9.9498 19.4463 9.51184 19.0657C8.91809 19.5668 8.62416 19.7285 7.84229 19.4595C7.11774 18.9966 7.46164 18.7585 7.26177 18.2706C6.28002 17.5254 6.136 17.0125 7.04866 16.3247C7.88638 16.3247 8.66825 15.6736 8.30524 14.761C8.51834 14.8359 8.71821 14.9858 8.99892 15.2239C8.99892 15.343 8.72997 15.5678 8.62269 15.6619C7.92312 16.8509 8.72997 17.3814 9.92335 17.6195C9.97332 17.6886 10.0292 17.7503 10.0791 17.8326C10.3172 17.9884 10.5729 18.1515 10.8228 18.3205H10.8243ZM13.9752 19.4904C13.1816 19.3405 11.95 18.9466 12.1749 18.0207C12.2381 17.9899 12.3072 17.9766 12.388 17.9649C12.3571 17.8591 12.3321 17.765 12.3189 17.6768C12.3439 17.6327 12.388 17.596 12.4247 17.5519C12.6246 17.621 12.8245 17.7018 13.0185 17.7768C14.2001 17.7768 15.3009 16.3071 14.2251 15.462C14.0002 15.4062 13.7372 15.3562 13.5255 15.318C13.5255 14.9991 13.5005 14.6361 13.4447 14.4612C13.7078 14.2922 13.6887 14.1364 13.7577 13.9174C14.3765 14.5611 16.0842 14.6934 16.315 14.6552C17.1218 15.3062 16.8778 15.925 16.121 16.6128C15.6624 16.8587 15.1892 17.1379 14.7013 17.4505C14.3574 18.0692 14.1325 18.8011 15.0775 19.2082C15.0584 19.2332 15.0466 19.2773 15.0466 19.314C14.6777 19.4331 14.2839 19.4581 13.9767 19.4889L13.9752 19.4904ZM42.7309 19.2905C43.1439 18.4528 43.1056 18.2588 42.5501 17.6195C42.363 17.4941 42.0524 17.3398 41.6183 17.1565C41.6051 17.1007 41.5933 17.0507 41.5816 17.0125C41.8065 16.9684 42.0445 16.9317 42.2812 16.9067C42.6574 17.0375 44.4254 17.5005 44.2829 18.4014C43.9257 18.8143 43.2761 19.289 42.7323 19.289L42.7309 19.2905ZM42.0063 19.2214C42.6824 17.1948 39.7798 17.3006 38.8304 16.7318C38.2043 16.1116 37.8486 15.7251 38.0617 14.9858C38.1925 14.9858 38.2175 14.93 38.4556 15.074C38.4174 14.955 38.3366 14.88 38.3248 14.7301C38.9185 15.0241 39.2125 15.1549 39.9943 15.1181C39.9943 15.7809 39.9826 15.875 40.3265 16.6128H40.4205C40.8144 17.2888 43.4099 17.6577 42.628 18.9716C42.4149 19.0524 42.2091 19.1274 42.0093 19.2214H42.0063ZM11.2622 18.1383C10.6376 18.0824 10.2805 17.7753 10.1497 17.3123C9.04889 17.3932 8.68 17.1801 8.59917 16.1866C8.75496 15.8177 8.84902 15.7677 9.13119 15.5237C9.22525 15.5428 9.33107 15.5546 9.43101 15.5678C9.45011 15.5237 9.46187 15.4988 9.4751 15.4738C10.1379 15.5796 10.5759 15.7368 11.2887 15.3547C11.5268 15.3547 11.8707 15.6619 11.8707 16.0558C11.4327 16.5878 10.983 17.0008 10.5068 16.4247H10.351C10.351 16.7877 10.7449 17.0008 11.2196 16.9434C11.9633 16.4114 12.3072 16.0675 11.8574 15.3915C11.7634 15.3165 11.6693 15.2474 11.5826 15.1784C11.6443 15.0593 11.7266 14.9403 11.8075 14.8345C12.3454 14.9285 12.6643 14.7963 13.2771 14.7154C13.3139 14.9726 13.1963 15.2974 13.258 15.6031C13.8577 15.6031 14.5337 15.4841 14.4279 16.4923C14.134 17.3123 13.5902 17.6871 12.7334 17.4622C12.5541 17.3202 12.4208 17.2349 12.3336 17.2065C12.0147 17.6753 11.8089 18.0692 11.2637 18.1383H11.2622ZM41.3435 17.0125C40.4176 16.5187 40.0428 16.0175 40.2677 15.1049C40.375 15.049 40.4808 14.9991 40.5866 14.9417C40.6116 14.9976 41.1686 15.2739 41.3435 15.3665C41.2245 16.0793 41.1686 16.1101 41.8873 16.648C41.8873 16.8112 41.4626 16.9802 41.3435 17.011V17.0125ZM2.85422 16.9684C2.79935 16.9263 2.57841 16.8616 2.19139 16.7744C1.07885 16.1484 0.402799 15.6604 1.57266 14.8345C2.03561 14.6787 2.44271 14.4906 3.04233 14.7037C3.21135 15.4356 3.39946 15.8544 4.28715 16.1484C5.18757 16.2816 5.65443 16.3649 5.68775 16.3982C6.12179 16.3727 6.41768 16.3727 6.57543 16.3982C6.45639 16.5731 6.33734 16.7421 6.2183 16.9302C5.96845 16.9052 5.58046 16.8112 5.47464 16.7744C4.60607 16.8362 3.73014 16.9052 2.85568 16.9684H2.85422ZM5.59222 16.1366C4.33565 15.8044 3.29071 15.9485 3.38477 14.5038C3.68458 14.1217 3.92855 14.0849 4.44146 13.9909C4.53552 14.0541 4.54728 14.0849 4.65457 14.3348C5.41145 14.9285 6.12424 15.3415 6.79882 14.3348C6.79882 13.5661 5.59222 13.5911 5.63484 13.9791C5.96698 13.9791 6.21683 13.8851 6.53575 14.1349C6.53575 14.6537 6.01695 14.6919 5.63484 14.6919C3.68458 13.91 5.43496 12.8783 6.69153 12.8783C6.77237 12.9033 6.85467 12.9474 6.92962 12.9841C6.92962 13.935 6.9987 14.373 8.01718 14.8359C8.28025 15.368 8.07891 15.7809 7.55423 16.0175C6.81058 16.0175 6.25357 16.1234 5.59075 16.1366H5.59222ZM45.0515 15.7795C44.4019 15.6854 43.7817 15.5237 43.2761 15.3797V15.2607C44.2696 14.1599 43.6083 13.3148 42.3752 13.6337C42.2944 13.6587 42.2312 13.6969 42.1621 13.7396C42.1489 13.7763 42.1489 13.8277 42.1489 13.8836C42.5619 13.8836 43.1056 13.5147 43.5686 14.0967C43.5686 15.0226 42.8367 15.4973 41.9123 15.3547C41.3802 15.1299 40.6924 14.8359 40.4308 14.492C40.4308 13.91 40.8806 13.935 41.1436 13.5911C41.0496 13.4838 40.9629 13.3971 40.8806 13.3031C40.9864 12.771 41.6374 12.4962 42.1621 12.4771C42.6809 12.6652 42.919 12.8093 43.0248 12.821C43.4995 12.0582 44.9692 12.1641 45.7878 12.095C46.8386 12.145 47.8321 12.5579 47.2457 13.8586C46.5697 14.2407 45.8334 14.3583 45.5012 13.6837C45.5012 13.234 45.488 13.234 45.8951 13.09C45.9142 13.0341 45.9259 12.9959 45.9392 12.9592C45.2514 12.9592 45.2646 13.1723 45.3013 13.8042C45.8334 14.7742 46.9959 14.467 47.6337 13.6602C47.667 13.2516 47.6714 12.9596 47.6469 12.7843C47.5509 12.6177 47.5073 12.507 47.5161 12.4521C48.4288 12.6902 48.4156 13.2707 48.298 14.229C47.5661 15.8559 46.7093 15.6869 45.053 15.7809L45.0515 15.7795ZM8.68147 14.5479C6.39907 14.5346 6.71799 11.9892 8.73144 12.4771C8.71821 12.0083 8.95042 11.0133 10.5009 11.7143C11.3754 11.3014 11.6076 11.9392 11.4195 12.2464C12.7451 12.6593 11.8501 13.3721 11.2255 13.1664C11.1755 13.6484 10.7184 13.9042 10.3319 13.9365C9.41925 14.0056 9.00039 12.8225 10.1629 12.7034C10.1497 12.6667 10.1379 12.6402 10.1247 12.6153C8.94307 12.3213 8.82403 14.1599 10.3187 14.1599C10.9242 14.104 11.1373 13.8601 11.3372 13.4471C12.3748 13.4471 12.7495 12.4962 11.7443 12.0774C13.2198 11.4263 14.4514 12.9724 13.3947 13.8601C13.5946 14.467 12.244 14.9109 11.9059 14.3598H11.7751C11.7751 15.0799 9.99242 16.1057 8.68 14.5479H8.68147ZM47.9409 15.2857C48.5596 14.5596 48.6537 13.741 48.4905 12.8651C49.4973 12.8651 50.8479 13.4471 49.8735 14.6787C49.2606 15.1034 48.5728 15.2225 47.9409 15.2857ZM39.2624 14.9417C38.3498 14.6096 38.3116 14.3098 38.2748 13.5661C38.8686 12.5344 39.6754 12.7343 40.763 12.7593C40.7747 12.7975 40.788 12.8401 40.7997 12.8901C40.6557 13.1149 40.5381 13.234 40.763 13.5779C40.5749 13.8968 40.2559 14.0159 40.181 14.5038C40.2388 14.6292 40.2677 14.7233 40.2677 14.786C40.0987 14.955 39.4241 14.9417 39.261 14.9417H39.2624ZM37.0682 14.7595C36.0615 14.3598 35.8366 13.7087 36.4436 12.9136C37.0682 12.5447 36.7508 12.6505 37.4621 12.9577C37.4489 12.8769 37.4489 12.8078 37.4489 12.7446C37.5988 12.7446 37.7634 12.7696 37.9427 12.8195C38.7995 11.5747 40.1942 11.6556 41.5684 12.2816C41.5684 12.4007 41.2627 12.5447 41.1436 12.6138C39.7298 12.3889 37.3857 12.533 38.2043 14.5846C37.7663 14.6655 37.3857 14.7478 37.0668 14.7595H37.0682ZM14.9335 14.3215C14.7086 14.1584 14.1457 14.0217 14.1016 13.9144C15.8094 13.2193 16.3091 12.0068 15.1524 11.0486C15.5238 10.9232 15.7717 10.8565 15.8961 10.8487C16.6398 10.812 18.2784 10.6679 18.3843 12.1993C19.0089 12.4624 18.4783 13.619 17.5774 13.619C17.0895 13.1311 15.3024 13.888 14.932 14.3201L14.9335 14.3215ZM13.9708 13.7645C14.2765 12.3816 13.4961 11.4307 11.6576 11.8437C11.6267 11.7055 11.5958 11.7305 11.5135 11.5248C11.5517 11.4498 12.1073 11.1809 12.1764 11.0618C12.5335 11.1559 13.0214 11.2426 13.4079 10.981C13.8459 11.0618 14.3089 11.2441 14.8644 11.2058C16.4707 11.9759 15.1025 13.5147 13.9708 13.7645ZM36.4172 9.6862C36.2481 10.0801 36.1291 10.2432 36.1673 10.7943C36.7111 11.4572 37.3989 12.12 38.4556 11.8951V11.9069C38.2057 12.12 37.9544 12.4257 37.7046 12.5197C36.5788 12.2816 35.2282 12.3199 34.3096 11.8011C33.785 10.9001 34.7917 9.8993 35.6103 9.65533C36.0267 9.64651 36.2957 9.6568 36.4172 9.6862ZM38.4556 11.9069V11.8951C38.4556 11.8319 38.4674 11.7643 38.4865 11.6952C38.3366 11.682 38.1234 11.7761 37.7795 11.7761C36.3349 11.0883 36.085 10.7561 36.8287 9.52453C37.004 9.35797 37.175 9.22668 37.3416 9.13066C37.7296 9.13066 38.5232 9.02484 38.6422 9.61859C38.679 9.63035 38.7231 9.6568 38.7613 9.68766C39.261 9.2497 39.674 8.62362 40.5249 8.86171C40.9878 9.14389 41.1995 9.34376 41.3317 10.0316C40.9188 10.4813 40.5117 10.7693 39.9238 10.5445C39.6857 10.3064 39.4608 9.96249 39.2492 10.0933C39.7812 11.1573 41.4243 11.0501 41.5566 9.76115C41.4258 9.41724 41.4126 9.34229 41.4376 9.06011H41.5125V8.97928C41.7682 8.8911 42.9322 8.75442 43.1556 8.97928C43.7126 9.07334 44.0448 9.46134 44.0448 10.1359C43.451 11.7878 42.5883 11.6056 41.0128 11.6188C40.9878 11.657 40.9629 11.6938 40.9438 11.7496C39.8753 11.5497 39.4623 11.5747 38.4556 11.9054V11.9069ZM9.41925 10.9193C8.2685 11.7129 7.26177 9.69942 8.63738 9.15564C8.24351 8.27384 9.73817 7.06577 10.4936 8.73091C10.6009 8.7118 10.9947 8.70004 11.3181 8.81174C12.2939 9.14389 11.3871 10.5753 10.5862 9.4628C10.5303 9.43194 10.4921 9.41872 10.4554 9.40696C10.3981 9.72 10.7111 10.0757 11.105 10.083C12.5555 10.0889 11.7987 8.65008 11.6296 8.66918C14.3118 7.63747 14.2001 11.9289 12.1484 10.7341C11.2975 11.7158 9.92335 11.635 9.41631 10.9222L9.41925 10.9193ZM14.0708 10.9193C13.8836 10.8654 13.7587 10.811 13.696 10.7561C14.1457 9.77438 13.9517 9.36728 13.3139 8.64861V8.46784C13.7768 7.9608 14.2398 8.21799 14.7953 8.5619C16.0151 7.92994 17.6083 9.57597 15.9211 10.0815C15.6139 10.8766 14.7321 10.8502 14.0693 10.9193H14.0708ZM36.4745 9.59214C36.0615 9.44811 35.2106 9.32319 35.2929 8.90433C35.4927 8.67947 35.8616 8.12246 36.2628 8.21652C36.063 8.63538 35.8749 9.02337 36.5009 9.40549C36.5176 9.48485 36.5093 9.54756 36.4759 9.59361L36.4745 9.59214ZM36.6685 9.28497C35.9057 8.77206 36.4877 8.12099 37.0932 7.88438C37.3181 7.82853 37.5429 7.79032 37.781 7.74623C37.6737 8.17243 37.199 8.22828 37.2681 8.86024C37.0682 8.99839 36.8683 9.14242 36.667 9.28497H36.6685ZM38.2631 8.97781C38.171 8.92784 37.927 8.87151 37.5312 8.8088C37.3754 8.01371 38.2057 7.70801 38.8436 7.539C38.8686 7.55076 38.8936 7.57574 38.92 7.6022C38.607 8.04016 38.1955 8.34585 38.3512 8.92784C38.313 8.94107 38.2881 8.95283 38.2631 8.97781ZM38.9876 7.29504C38.9876 7.10104 39.2375 6.88794 39.3697 6.74391C39.4256 5.89297 39.2007 5.70632 38.6569 5.29922C38.6452 5.25513 38.632 5.23014 38.632 5.20516C38.9509 5.1934 39.283 5.23014 39.7136 5.44325V5.53731C40.3382 5.6005 40.6454 6.16927 40.5131 6.90116C40.3632 6.92615 40.2192 6.95113 40.0884 6.982C39.9135 7.24507 39.2125 7.28181 38.9876 7.29504ZM40.9202 6.92615C40.8703 6.88794 40.8144 6.86295 40.7762 6.83209C40.7762 6.1869 40.6454 5.90619 40.3382 5.52408C40.1883 5.43688 40.1051 5.37025 40.0884 5.3242C40.6322 5.3242 42.1518 6.58224 40.9202 6.92615ZM31.5731 6.56902C30.0226 6.29419 29.9844 4.29249 31.2424 3.87951C30.9661 4.79218 31.2542 4.87448 31.798 5.71808C31.867 5.77392 31.942 5.843 32.0228 5.90619C32.4358 6.08109 32.8297 6.16927 32.8297 6.21336C32.3545 6.37992 31.9356 6.49896 31.5731 6.57049V6.56902ZM30.4473 6.49994C29.1099 5.91795 29.4406 5.3242 30.1593 4.42329C30.3974 4.21068 30.5517 4.09605 30.6222 4.07939C29.9153 5.12433 29.9844 5.37417 30.7163 6.49994H30.4473ZM31.1792 3.48417C30.1975 2.42013 29.8668 2.51419 28.597 2.43336C28.4648 2.56416 27.2714 2.53917 27.0215 2.52741C27.0098 2.50243 26.9907 2.47745 26.9907 2.46422C27.6153 2.31431 28.4354 2.3393 29.154 2.31431C30.2357 2.17028 31.3115 1.72056 32.0493 2.83311C31.9743 3.28283 31.5496 3.36513 31.1807 3.48417H31.1792Z" fill="#D0BE92"/>
</g>
</g>
<defs>
<clipPath id="clip0_62_2258">
<rect width="49" height="49" fill="white" transform="translate(0.708496 0.55188)"/>
</clipPath>
</defs>
</svg>
