<svg width="49" height="50" viewBox="0 0 49 50" fill="none" xmlns="http://www.w3.org/2000/svg">
<g id="Tab 4">
<path id="&#244;&#128;&#137;&#134;" d="M15.7871 28.2389V13.4244C15.7871 11.3932 16.793 10.358 18.8145 10.358H29.1855C31.207 10.358 32.2129 11.3932 32.2129 13.4244V28.2389C32.2129 30.2799 31.207 31.2955 29.1855 31.2955H18.8145C16.793 31.2955 15.7871 30.2799 15.7871 28.2389ZM17.3594 28.2096C17.3594 29.1862 17.877 29.7233 18.8926 29.7233H29.1074C30.123 29.7233 30.6406 29.1862 30.6406 28.2096V13.4537C30.6406 12.4772 30.123 11.9303 29.1074 11.9303H18.8926C17.877 11.9303 17.3594 12.4772 17.3594 13.4537V28.2096ZM20.2988 16.0123C19.9473 16.0123 19.6934 15.7487 19.6934 15.4069C19.6934 15.0748 19.9473 14.8112 20.2988 14.8112H27.7109C28.0527 14.8112 28.3066 15.0748 28.3066 15.4069C28.3066 15.7487 28.0527 16.0123 27.7109 16.0123H20.2988ZM20.2988 19.4205C19.9473 19.4205 19.6934 19.1569 19.6934 18.8151C19.6934 18.483 19.9473 18.2194 20.2988 18.2194H27.7109C28.0527 18.2194 28.3066 18.483 28.3066 18.8151C28.3066 19.1569 28.0527 19.4205 27.7109 19.4205H20.2988ZM20.2988 22.8287C19.9473 22.8287 19.6934 22.5748 19.6934 22.2428C19.6934 21.8912 19.9473 21.6276 20.2988 21.6276H23.8047C24.1562 21.6276 24.4102 21.8912 24.4102 22.2428C24.4102 22.5748 24.1562 22.8287 23.8047 22.8287H20.2988Z" fill="white" fill-opacity="0.7"/>
</g>
</svg>
