<svg width="50" height="50" viewBox="0 0 50 50" fill="none" xmlns="http://www.w3.org/2000/svg">
<g id="Tab 4" clip-path="url(#clip0_62_2223)">
<g id="Frame">
<path id="Vector" d="M32.6323 11.0642H18.7657C17.5923 11.0642 16.6323 12.0242 16.6323 13.1976V29.1976C16.6323 30.3709 17.5923 31.3309 18.7657 31.3309H32.6323C33.8057 31.3309 34.7657 30.3709 34.7657 29.1976V13.1976C34.7657 12.0242 33.8057 11.0642 32.6323 11.0642ZM20.3123 16.2376H25.859C26.179 16.2376 26.3923 16.4509 26.3923 16.7709C26.3923 17.0909 26.179 17.3042 25.859 17.3042H20.3123C19.9923 17.3042 19.779 17.0909 19.779 16.7709C19.779 16.4509 19.9923 16.2376 20.3123 16.2376ZM30.9257 25.6242H20.3123C19.9923 25.6242 19.779 25.4109 19.779 25.0909C19.779 24.7709 19.9923 24.5576 20.3123 24.5576H30.9257C31.2457 24.5576 31.459 24.7709 31.459 25.0909C31.459 25.4109 31.2457 25.6242 30.9257 25.6242ZM31.0857 21.4642H20.3123C19.9923 21.4642 19.779 21.2509 19.779 20.9309C19.779 20.6109 19.9923 20.3976 20.3123 20.3976H31.139C31.459 20.3976 31.6723 20.6109 31.6723 20.9309C31.6723 21.2509 31.4057 21.4642 31.0857 21.4642Z" fill="white"/>
</g>
<path id="Vector_2" d="M17.9947 27.238C17.6008 27.0382 17.2378 27.0881 16.938 27.0632C15.1494 26.0314 15.1376 25.0365 15.9195 23.3655C17.0012 21.7385 18.8838 21.3946 20.2712 20.1307C20.9781 19.1108 21.203 19.0358 20.1271 18.5038C19.3335 18.4538 18.6575 18.4905 18.0079 18.7286C15.9523 19.8133 14.756 20.4619 14.4189 20.6745C12.8052 21.1124 11.268 21.2873 10.4229 19.7236C9.78506 20.3556 9.39118 19.8044 8.9106 19.8044C8.18605 20.5305 7.11025 19.9485 6.74136 19.2856C6.69139 19.0725 6.63554 18.8727 6.59733 18.6787C6.14761 18.4538 5.90953 17.8277 5.75962 17.522C5.50977 17.5088 5.25993 17.497 5.00862 17.4838C4.71468 17.1149 2.71445 17.4588 2.54544 17.5088C1.62102 17.2457 0.556974 16.94 0.307129 16.0509C0.476141 14.7943 1.78856 14.7811 2.78353 14.7252C3.1774 14.2505 3.48309 14.2241 4.14592 14.0683C4.58388 13.2864 5.44658 12.9425 6.38423 12.9425C6.46653 12.9807 6.55324 13.0175 6.6473 13.0733C6.89127 12.9043 7.39684 12.4105 8.10375 12.5296C8.12286 12.4605 8.1596 12.3796 8.19781 12.2973C5.74639 12.2665 4.30317 10.6396 7.40418 9.87679C7.65403 9.60196 8.01116 9.53289 7.95972 9.17576C8.05966 8.06174 9.20453 7.57381 10.323 8.76278C10.4978 8.83773 10.636 8.87006 10.755 8.87006C10.8991 8.85096 11.7926 8.55115 12.7053 8.65108C13.2491 8.29395 13.6238 8.18226 14.2999 8.57025C14.9627 8.38948 16.2751 8.62022 16.4133 9.54024C16.5632 10.5411 15.6006 10.3971 15.6006 10.9541C16.4324 10.81 18.3386 11.198 18.2078 12.3547C18.8206 12.9984 18.7457 13.8243 17.2201 14.2123C17.0379 13.8875 15.5565 14.0624 14.9627 14.687C16.0385 14.7679 15.9944 14.662 16.6572 15.5879C16.6572 16.9959 15.5197 17.234 14.4748 17.9086C14.0133 18.7522 14.2382 19.2592 15.2434 19.4532C15.9944 19.1901 16.8939 18.9403 17.6258 18.4332C18.4444 18.1452 19.2512 17.8512 20.208 17.788C20.9752 17.8762 21.5003 17.9203 21.7835 17.9203C21.9157 17.788 23.0783 17.8512 23.453 17.8512C24.1908 18.0511 25.8986 18.4332 25.3856 19.7221C23.8601 21.3358 21.7585 22.4249 19.8773 23.4948C19.4643 23.9328 19.0014 24.1708 19.5202 24.8087C20.0463 25.0468 20.7518 24.9836 21.4396 24.9645C23.4089 24.5706 25.3974 23.6814 27.5034 23.7637C28.3103 23.9445 29.1171 24.1326 29.924 24.3325C30.8117 24.7264 32.1491 24.8337 33.1 25.4465C33.9749 25.6464 34.5897 25.8046 34.9444 25.9212C35.3133 26.1343 36.0702 25.9712 36.6081 25.8521C36.6889 25.6141 37.1151 25.445 37.3767 25.2834C37.7324 24.8763 37.7206 24.6896 37.7206 24.2135C36.852 22.9246 35.3633 22.5057 34.6637 21.2859C34.6637 20.554 34.7945 20.504 35.3265 20.0543V19.9352C34.5064 19.7104 34.1199 20.0543 33.3939 20.3541C32.2123 21.0992 31.8992 21.3932 32.8869 22.5939C34.2125 23.4698 36.5816 22.6247 36.5816 25.1276C36.3817 25.6405 35.9761 25.8654 35.4691 25.8654V25.7346C35.8321 25.5905 36.176 25.4348 36.37 25.0218C36.37 23.896 35.7263 23.777 34.9562 23.364C33.7128 23.2832 32.4239 22.9128 32.08 21.7503C32.1608 20.2365 32.7296 20.1616 34.0567 19.5237C35.0752 19.2739 36.0378 19.6046 37.0769 20.1498C37.7089 20.2556 38.8214 20.4496 39.5342 20.1748C39.5224 20.1189 39.5224 20.0807 39.5224 20.044C39.9354 20.044 40.4792 19.8191 40.9539 19.656C41.8783 18.9682 41.3919 18.5302 40.6791 18.0305C39.9589 17.7925 39.2226 17.6293 38.6215 17.4045C37.753 16.9165 37.2209 16.1464 37.3899 15.272C36.5081 15.272 36.2142 15.272 35.6837 14.6518C35.1266 13.5877 35.8585 13.695 36.0599 12.8882C35.1972 12.6633 33.8833 12.7574 33.5526 11.9255C33.5526 10.9688 34.1346 10.256 34.865 9.84299C34.865 9.59314 34.7093 9.55493 34.6534 9.48586C34.6534 8.54821 35.6969 8.30424 36.3479 8.09702C36.561 7.85305 36.7051 7.9089 37.0798 7.9089C37.8735 7.73401 39.2491 7.28282 38.6362 6.18791C38.1101 5.65589 37.5928 5.481 37.0108 5.64413C36.9775 5.59024 36.9691 5.52754 36.9858 5.45601C36.561 5.45601 36.2039 5.6309 35.8982 5.72496C35.8732 5.77493 35.86 5.8249 35.8483 5.89397C33.7789 6.32018 31.5583 7.56352 29.558 6.85073C28.4205 5.96305 29.0642 5.39282 29.6771 4.4728C29.8652 4.32877 30.3649 4.00985 30.4149 3.78499C29.4272 2.51519 27.9708 3.00313 26.6069 3.08396C26.5697 3.05065 26.0656 2.99872 25.0946 2.92817C23.7999 2.58427 23.043 1.74656 22.1053 1.08226C21.9422 0.819191 21.6924 0.394456 21.7614 0.19458C22.0113 0.676633 22.4742 1.44527 23.212 1.54521C23.7617 1.89989 24.1555 2.13945 24.3936 2.26388C24.5509 2.31385 25.8383 2.83264 26.2072 2.646C25.9941 2.5152 26.0073 2.47698 25.9823 2.37117C27.5079 2.67098 29.1715 2.26535 30.8411 2.26535C31.3849 2.40938 32.5106 3.31029 31.4539 3.84231C31.4348 3.88052 31.4231 3.93637 31.4098 3.98634C30.9836 4.11714 30.8278 4.66239 31.0292 5.15032C31.6362 6.038 31.6362 6.07034 32.8046 6.32018C33.4924 6.21436 34.2052 6.00126 34.9488 5.88222C35.8997 5.40751 36.7492 5.13856 37.8867 5.19441C38.1615 5.23262 39.1682 5.51333 39.5121 5.31345C39.566 5.2047 39.6493 5.09839 39.762 4.99453C39.7747 5.09055 39.7497 5.21793 39.687 5.37665C40.3881 5.37665 41.5947 6.46568 41.1317 7.28429C40.5321 7.54001 39.8561 7.57822 39.2623 7.80308V7.89714C38.5863 7.89714 37.8867 8.65402 38.2438 9.27423C38.9184 9.64311 39.4872 8.42916 40.682 9.28745C41.7387 8.84949 43.42 8.68048 43.8462 10.1634C43.7654 11.1833 43.2084 11.927 42.1517 12.2033C41.4433 12.17 41.0097 12.1616 40.851 12.1783C41.339 12.4164 41.9254 12.5722 42.5456 12.8661C43.3965 12.1533 44.7339 12.24 45.8847 12.24C46.2535 12.3341 46.8091 12.603 46.9164 12.603C47.0913 12.509 47.829 12.703 47.9231 13.0101C48.68 13.0101 49.5677 13.0542 50.0306 13.9801C50.2805 15.4998 48.411 15.7687 47.3925 15.7937C45.9478 16.7563 44.0417 16.1876 42.572 15.8745C42.0473 16.0053 41.5535 15.8437 41.1846 15.8745C40.416 16.6373 43.4347 17.4882 43.7669 17.5823C43.9168 17.741 44.0711 17.9575 44.2298 18.2319C44.3606 19.3826 43.6228 19.7016 42.6793 19.7897C40.7349 20.4158 38.2218 20.9596 36.42 20.0587C35.5822 20.0587 35.2251 20.1777 34.8812 20.9596C34.9885 22.1794 37.1078 22.9863 37.9631 24.1003C38.1512 24.744 37.7133 24.9703 37.7133 25.4891C36.4934 26.4018 35.5176 26.4018 34.2419 25.9653C32.8663 25.7963 31.6905 25.0394 30.4472 24.8146C28.8967 24.2326 27.5211 23.9136 25.9588 24.0694C25.2152 24.2943 24.6582 24.4442 24.0644 24.8013C23.9953 24.7896 23.9454 24.7896 23.8895 24.7896C23.8763 24.7337 23.8763 24.6838 23.8763 24.6397C23.1885 24.8028 18.8059 26.0844 19.0866 24.14C19.3115 23.6888 19.7862 23.4272 20.1551 23.095C22.0495 22.031 23.6632 21.1433 25.2578 19.5987C25.5458 18.5346 24.207 18.273 23.6632 18.0717C23.1459 18.055 22.608 18.0634 22.0495 18.0967C22.4625 18.6155 22.9372 19.0534 22.8181 19.9103C22.0612 21.33 20.3667 22.1809 19.0852 22.9878C18.2474 23.7579 16.7645 24.9454 18.0652 26.0961C19.0969 26.4959 21.1471 26.2842 22.4169 26.0579C23.2414 25.7522 24.0365 25.3951 24.2613 25.3451C24.2496 25.3833 24.2496 25.4392 24.2496 25.4891C25.2372 25.3451 26.3248 25.2261 27.3888 25.1702C28.1016 25.3333 28.8144 25.4891 29.5331 25.664C31.4216 26.415 34.0156 27.0529 36.2289 26.9221C37.1857 26.684 38.6362 26.4033 39.061 25.3451C39.4857 22.7864 36.7168 23.0803 36.1598 21.6856C36.1598 21.1036 36.4288 20.5099 37.1166 20.6039C37.1166 20.6289 37.1283 20.6539 37.1416 20.6921C36.2847 20.8303 36.1907 21.5298 36.7036 22.1618C38.2541 22.8819 39.7488 23.5815 39.2359 25.6464C38.4922 26.9603 35.91 27.1602 34.6652 27.1851C32.2137 26.7222 29.7814 25.9271 27.4741 25.3965C26.9185 25.4098 26.3806 25.4215 25.8368 25.4406C23.7984 25.7155 21.8467 26.4165 19.9963 27.0793C19.2527 27.1866 18.634 27.2234 17.9961 27.2425L17.9947 27.238ZM8.34625 12.0548C8.43296 11.924 8.53289 11.8109 8.62107 11.755C7.85831 11.611 7.37038 11.2171 7.31453 10.1854C5.05124 10.4044 5.73317 12.312 8.34625 12.0563V12.0548ZM17.9947 27.0617C17.8065 26.8736 17.2378 26.9177 17.107 26.9059C16.3001 26.5179 15.8754 26.0932 15.6623 25.3539C15.6623 22.7835 17.5817 21.9884 19.5819 20.9434C20.2315 20.4364 20.7518 19.9984 21.1456 19.3239C21.1456 18.517 20.1389 18.373 20.1389 18.1731C20.4696 18.0923 20.8958 18.104 21.3205 18.1231C21.3323 18.1981 21.3587 18.2789 21.3837 18.3612C21.4278 18.348 21.4646 18.3304 21.5145 18.3171C21.5336 18.2789 21.5454 18.2422 21.5586 18.2113C21.9966 18.1613 22.4963 18.93 22.6594 19.3812C22.6594 20.9949 19.6642 22.3587 18.5766 23.1656C17.7331 23.9607 16.5132 25.3554 18.052 26.2813C19.0278 26.5752 20.0463 26.4694 21.1721 26.4121C20.6474 26.9441 18.6707 27.0382 17.9961 27.0632L17.9947 27.0617ZM10.4596 18.6596C10.7403 18.6596 11.1357 18.7286 11.4664 18.4905C11.822 19.8294 13.6238 20.4364 14.923 19.7853C15.5236 19.61 15.8715 19.5267 15.9665 19.5355C15.6476 19.7486 14.8981 20.0925 14.0589 20.5804C13.4044 20.697 13.0208 20.7823 12.9081 20.8361C11.6765 20.7053 10.9887 20.4922 10.564 19.4723C10.5258 19.1901 10.4832 18.9285 10.4582 18.6596H10.4596ZM42.1032 19.7104C42.0532 19.8926 40.5835 20.0793 40.3969 20.0543C40.66 19.9852 40.9906 19.8911 41.2978 19.7221C41.5609 19.7104 41.8298 19.7104 42.1047 19.7104H42.1032ZM10.4214 18.6463C10.3964 18.6581 10.3656 18.6772 10.3406 18.6904C10.3151 18.8325 10.2985 19.1328 10.2906 19.5913C9.52199 19.9235 9.54697 19.7721 9.10901 19.3915C8.51526 19.8926 8.22132 20.0543 7.43946 19.7853C6.71491 19.3224 7.05881 19.0843 6.85893 18.5964C5.87719 17.8512 5.73316 17.3383 6.64583 16.6505C7.48355 16.6505 8.26541 15.9995 7.9024 15.0868C8.11551 15.1617 8.31538 15.3116 8.59609 15.5497C8.59609 15.6688 8.32714 15.8936 8.21985 15.9877C7.52029 17.1767 8.32714 17.7072 9.52051 17.9453C9.57048 18.0144 9.62633 18.0761 9.6763 18.1584C9.91439 18.3142 10.1701 18.4773 10.42 18.6463H10.4214ZM13.5724 19.8162C12.7788 19.6663 11.5472 19.2724 11.7721 18.3465C11.8353 18.3157 11.9043 18.3024 11.9852 18.2907C11.9543 18.1849 11.9293 18.0908 11.9161 18.0026C11.9411 17.9585 11.9852 17.9218 12.0219 17.8777C12.2218 17.9468 12.4217 18.0276 12.6156 18.1026C13.7973 18.1026 14.8981 16.6329 13.8223 15.7878C13.5974 15.732 13.3343 15.682 13.1227 15.6438C13.1227 15.3249 13.0977 14.9619 13.0419 14.787C13.3049 14.618 13.2858 14.4622 13.3549 14.2432C13.9736 14.8869 15.6814 15.0192 15.9121 14.981C16.719 15.632 16.475 16.2508 15.7181 16.9386C15.2596 17.1845 14.7864 17.4637 14.2984 17.7763C13.9545 18.395 13.7297 19.1269 14.6747 19.534C14.6556 19.559 14.6438 19.6031 14.6438 19.6398C14.2749 19.7589 13.881 19.7839 13.5739 19.8147L13.5724 19.8162ZM42.328 19.6163C42.741 18.7786 42.7028 18.5846 42.1473 17.9453C41.9601 17.8199 41.6495 17.6656 41.2155 17.4824C41.2023 17.4265 41.1905 17.3765 41.1788 17.3383C41.4036 17.2942 41.6417 17.2575 41.8783 17.2325C42.2546 17.3633 44.0226 17.8263 43.88 18.7272C43.5229 19.1401 42.8733 19.6148 42.3295 19.6148L42.328 19.6163ZM41.6035 19.5472C42.2795 17.5206 39.3769 17.6264 38.4275 17.0576C37.8014 16.4374 37.4458 16.0509 37.6589 15.3116C37.7897 15.3116 37.8147 15.2558 38.0528 15.3998C38.0145 15.2808 37.9337 15.2058 37.922 15.0559C38.5157 15.3499 38.8096 15.4807 39.5915 15.4439C39.5915 16.1067 39.5798 16.2008 39.9237 16.9386H40.0177C40.4116 17.6146 43.007 17.9835 42.2252 19.2974C42.0121 19.3782 41.8063 19.4532 41.6064 19.5472H41.6035ZM10.8594 18.4641C10.2348 18.4082 9.87765 18.1011 9.74684 17.6381C8.64606 17.719 8.27717 17.5059 8.19634 16.5124C8.35212 16.1435 8.44618 16.0935 8.72836 15.8495C8.82242 15.8687 8.92824 15.8804 9.02817 15.8936C9.04728 15.8495 9.05904 15.8246 9.07226 15.7996C9.73509 15.9054 10.1731 16.0626 10.8858 15.6805C11.1239 15.6805 11.4678 15.9877 11.4678 16.3816C11.0299 16.9136 10.5801 17.3266 10.104 16.7505H9.94819C9.94819 17.1135 10.3421 17.3266 10.8168 17.2692C11.5604 16.7372 11.9043 16.3933 11.4546 15.7173C11.3605 15.6423 11.2665 15.5732 11.1798 15.5042C11.2415 15.3851 11.3238 15.2661 11.4046 15.1603C11.9425 15.2543 12.2615 15.1221 12.8743 15.0412C12.9111 15.2984 12.7935 15.6232 12.8552 15.9289C13.4548 15.9289 14.1309 15.8099 14.0251 16.8181C13.7311 17.6381 13.1874 18.0129 12.3305 17.788C12.1512 17.646 12.018 17.5607 11.9308 17.5323C11.6119 18.0012 11.4061 18.395 10.8609 18.4641H10.8594ZM40.9407 17.3383C40.0148 16.8445 39.64 16.3434 39.8649 15.4307C39.9722 15.3748 40.078 15.3249 40.1838 15.2676C40.2088 15.3234 40.7658 15.5997 40.9407 15.6923C40.8216 16.4051 40.7658 16.4359 41.4845 16.9738C41.4845 17.137 41.0597 17.306 40.9407 17.3369V17.3383ZM2.45138 17.2942C2.39652 17.2521 2.17557 17.1874 1.78856 17.1002C0.676017 16.4742 -3.29018e-05 15.9862 1.16983 15.1603C1.63277 15.0045 2.03987 14.8164 2.6395 15.0295C2.80851 15.7614 2.99663 16.1802 3.88432 16.4742C4.78474 16.6074 5.2516 16.6907 5.28491 16.724C5.71896 16.6985 6.01485 16.6985 6.1726 16.724C6.05355 16.8989 5.93451 17.0679 5.81547 17.256C5.56562 17.231 5.17763 17.137 5.07181 17.1002C4.20323 17.162 3.32731 17.231 2.45285 17.2942H2.45138ZM5.18939 16.4624C3.93281 16.1303 2.88788 16.2743 2.98194 14.8296C3.28175 14.4475 3.52571 14.4107 4.03863 14.3167C4.13269 14.3799 4.14445 14.4107 4.25173 14.6606C5.00862 15.2543 5.72141 15.6673 6.39599 14.6606C6.39599 13.8919 5.18939 13.9169 5.23201 14.3049C5.56415 14.3049 5.814 14.2109 6.13292 14.4607C6.13292 14.9795 5.61412 15.0177 5.23201 15.0177C3.28175 14.2358 5.03213 13.2041 6.2887 13.2041C6.36953 13.2291 6.45184 13.2732 6.52679 13.3099C6.52679 14.2608 6.59586 14.6988 7.61435 15.1617C7.87742 15.6938 7.67607 16.1067 7.1514 16.3434C6.40775 16.3434 5.85074 16.4492 5.18792 16.4624H5.18939ZM44.6487 16.1053C43.9991 16.0112 43.3789 15.8495 42.8733 15.7055V15.5865C43.8668 14.4857 43.2054 13.6406 41.9724 13.9595C41.8915 13.9845 41.8284 14.0227 41.7593 14.0654C41.7461 14.1021 41.7461 14.1535 41.7461 14.2094C42.159 14.2094 42.7028 13.8405 43.1658 14.4225C43.1658 15.3484 42.4339 15.8231 41.5094 15.6805C40.9774 15.4557 40.2896 15.1617 40.028 14.8178C40.028 14.2358 40.4777 14.2608 40.7408 13.9169C40.6467 13.8096 40.56 13.7229 40.4777 13.6289C40.5835 13.0968 41.2346 12.822 41.7593 12.8029C42.2781 12.991 42.5162 13.1351 42.622 13.1468C43.0967 12.3841 44.5664 12.4899 45.385 12.4208C46.4358 12.4708 47.4293 12.8837 46.8429 14.1844C46.1668 14.5665 45.4305 14.6841 45.0984 14.0095C45.0984 13.5598 45.0852 13.5598 45.4923 13.4158C45.5114 13.3599 45.5231 13.3217 45.5363 13.285C44.8485 13.285 44.8618 13.4981 44.8985 14.13C45.4305 15.1 46.593 14.7929 47.2309 13.986C47.2642 13.5774 47.2686 13.2855 47.2441 13.1101C47.1481 12.9435 47.1045 12.8328 47.1133 12.7779C48.026 13.016 48.0127 13.5965 47.8952 14.5548C47.1633 16.1817 46.3065 16.0127 44.6501 16.1067L44.6487 16.1053ZM8.27864 14.8737C5.99624 14.8605 6.31516 12.315 8.32861 12.8029C8.31538 12.3341 8.54759 11.3391 10.0981 12.0402C10.9726 11.6272 11.2048 12.265 11.0166 12.5722C12.3423 12.9852 11.4473 13.6979 10.8226 13.4922C10.7727 13.9742 10.3156 14.23 9.92908 14.2623C9.01642 14.3314 8.59756 13.1483 9.76007 13.0292C9.74684 12.9925 9.73509 12.966 9.72186 12.9411C8.54024 12.6471 8.4212 14.4857 9.91586 14.4857C10.5214 14.4298 10.7345 14.1859 10.9343 13.7729C11.9719 13.7729 12.3467 12.822 11.3414 12.4032C12.817 11.7521 14.0486 13.2982 12.9919 14.1859C13.1918 14.7929 11.8411 15.2367 11.5031 14.6856H11.3723C11.3723 15.4057 9.58959 16.4315 8.27717 14.8737H8.27864ZM47.538 15.6115C48.1568 14.8854 48.2508 14.0668 48.0877 13.1909C49.0944 13.1909 50.4451 13.7729 49.4707 15.0045C48.8578 15.4292 48.17 15.5483 47.538 15.6115ZM38.8596 15.2676C37.9469 14.9354 37.9087 14.6356 37.872 13.8919C38.4657 12.8602 39.2726 13.0601 40.3601 13.0851C40.3719 13.1233 40.3851 13.1659 40.3969 13.2159C40.2529 13.4408 40.1353 13.5598 40.3601 13.9037C40.172 14.2226 39.8531 14.3417 39.7782 14.8296C39.836 14.955 39.8649 15.0491 39.8649 15.1118C39.6959 15.2808 39.0213 15.2676 38.8581 15.2676H38.8596ZM36.6654 15.0853C35.6587 14.6856 35.4338 14.0345 36.0408 13.2394C36.6654 12.8705 36.3479 12.9763 37.0593 13.2835C37.046 13.2027 37.046 13.1336 37.046 13.0704C37.1959 13.0704 37.3605 13.0954 37.5398 13.1453C38.3967 11.9005 39.7914 11.9814 41.1655 12.6074C41.1655 12.7265 40.8598 12.8705 40.7408 12.9396C39.327 12.7147 36.9828 12.8588 37.8014 14.9104C37.3635 14.9913 36.9828 15.0736 36.6639 15.0853H36.6654ZM14.5306 14.6474C14.3058 14.4842 13.7429 14.3475 13.6988 14.2403C15.4066 13.5451 15.9062 12.3326 14.7496 11.3744C15.121 11.249 15.3688 11.1824 15.4933 11.1745C16.2369 11.1378 17.8756 10.9937 17.9814 12.5251C18.606 12.7882 18.0755 13.9448 17.1746 13.9448C16.6866 13.4569 14.8995 14.2138 14.5292 14.6459L14.5306 14.6474ZM13.568 14.0903C13.8737 12.7074 13.0933 11.7565 11.2547 12.1695C11.2239 12.0313 11.193 12.0563 11.1107 11.8506C11.1489 11.7756 11.7044 11.5067 11.7735 11.3876C12.1307 11.4817 12.6186 11.5684 13.0051 11.3068C13.4431 11.3876 13.906 11.5699 14.4616 11.5316C16.0679 12.3018 14.6996 13.8405 13.568 14.0903ZM36.0143 10.012C35.8453 10.4059 35.7263 10.569 35.7645 11.1201C36.3083 11.783 36.9961 12.4458 38.0528 12.2209V12.2327C37.8029 12.4458 37.5516 12.7515 37.3018 12.8455C36.176 12.6074 34.8254 12.6457 33.9068 12.1269C33.3821 11.226 34.3889 10.2251 35.2075 9.98114C35.6239 9.97232 35.8928 9.98261 36.0143 10.012ZM38.0528 12.2327V12.2209C38.0528 12.1577 38.0645 12.0901 38.0836 12.021C37.9337 12.0078 37.7206 12.1019 37.3767 12.1019C35.932 11.4141 35.6822 11.0819 36.4258 9.85034C36.6012 9.68377 36.7722 9.55248 36.9387 9.45646C37.3267 9.45646 38.1204 9.35065 38.2394 9.9444C38.2762 9.95615 38.3202 9.98261 38.3585 10.0135C38.8581 9.57551 39.2711 8.94943 40.1221 9.18751C40.585 9.46969 40.7966 9.66957 40.9289 10.3574C40.5159 10.8071 40.1088 11.0952 39.521 10.8703C39.2829 10.6322 39.058 10.2883 38.8464 10.4191C39.3784 11.4831 41.0215 11.3759 41.1538 10.087C41.023 9.74305 41.0097 9.6681 41.0347 9.38592H41.1097V9.30509C41.3654 9.21691 42.5294 9.08023 42.7528 9.30509C43.3098 9.39915 43.6419 9.78714 43.6419 10.4617C43.0482 12.1136 42.1855 11.9314 40.61 11.9446C40.585 11.9828 40.56 12.0196 40.5409 12.0754C39.4725 11.8755 39.0595 11.9005 38.0528 12.2312V12.2327ZM9.01642 11.2451C7.86566 12.0387 6.85894 10.0252 8.23455 9.48145C7.84068 8.59964 9.33534 7.39157 10.0907 9.05671C10.198 9.03761 10.5919 9.02585 10.9152 9.13754C11.8911 9.46969 10.9843 10.9012 10.1833 9.78861C10.1275 9.75775 10.0893 9.74452 10.0525 9.73276C9.99522 10.0458 10.3083 10.4015 10.7021 10.4088C12.1527 10.4147 11.3958 8.97588 11.2268 8.99499C13.909 7.96328 13.7973 12.2547 11.7456 11.0599C10.8947 12.0416 9.52051 11.9608 9.01348 11.248L9.01642 11.2451ZM13.6679 11.2451C13.4808 11.1912 13.3559 11.1368 13.2932 11.0819C13.7429 10.1002 13.5489 9.69308 12.9111 8.97441V8.79364C13.374 8.2866 13.8369 8.5438 14.3925 8.8877C15.6123 8.25574 17.2054 9.90178 15.5183 10.4073C15.2111 11.2024 14.3293 11.176 13.6665 11.2451H13.6679ZM36.0716 9.91794C35.6587 9.77391 34.8077 9.64899 34.89 9.23013C35.0899 9.00527 35.4588 8.44827 35.86 8.54233C35.6601 8.96118 35.472 9.34918 36.0981 9.73129C36.1148 9.81065 36.1064 9.87336 36.0731 9.91941L36.0716 9.91794ZM36.2656 9.61078C35.5029 9.09786 36.0849 8.4468 36.6904 8.21018C36.9152 8.15433 37.1401 8.11612 37.3782 8.07203C37.2709 8.49824 36.7962 8.55408 36.8653 9.18604C36.6654 9.32419 36.4655 9.46822 36.2642 9.61078H36.2656ZM37.8602 9.30362C37.7681 9.25365 37.5242 9.19731 37.1283 9.13461C36.9726 8.33951 37.8029 8.03382 38.4408 7.86481C38.4657 7.87656 38.4907 7.90155 38.5172 7.928C38.2041 8.36597 37.7926 8.67166 37.9484 9.25365C37.9102 9.26688 37.8852 9.27863 37.8602 9.30362ZM38.5848 7.62084C38.5848 7.42685 38.8346 7.21374 38.9669 7.06971C39.0227 6.21877 38.7979 6.03212 38.2541 5.62502C38.2424 5.58093 38.2291 5.55595 38.2291 5.53097C38.548 5.51921 38.8802 5.55595 39.3108 5.76905V5.86311C39.9354 5.92631 40.2426 6.49507 40.1103 7.22697C39.9604 7.25195 39.8164 7.27694 39.6856 7.3078C39.5107 7.57087 38.8096 7.60761 38.5848 7.62084ZM40.5174 7.25195C40.4674 7.21374 40.4116 7.18876 40.3734 7.15789C40.3734 6.51271 40.2426 6.232 39.9354 5.84988C39.7855 5.76268 39.7022 5.69606 39.6856 5.65001C40.2293 5.65001 41.749 6.90805 40.5174 7.25195ZM31.1703 6.89482C29.6198 6.61999 29.5816 4.6183 30.8396 4.20532C30.5633 5.11799 30.8514 5.20029 31.3951 6.04388C31.4642 6.09973 31.5392 6.1688 31.62 6.232C32.033 6.40689 32.4269 6.49507 32.4269 6.53916C31.9517 6.70572 31.5328 6.82477 31.1703 6.89629V6.89482ZM30.0445 6.82575C28.7071 6.24376 29.0378 5.65001 29.7565 4.7491C29.9945 4.53649 30.1489 4.42185 30.2194 4.4052C29.5125 5.45013 29.5816 5.69998 30.3135 6.82575H30.0445ZM30.7764 3.80998C29.7947 2.74593 29.464 2.83999 28.1942 2.75916C28.0619 2.88996 26.8685 2.86498 26.6187 2.85322C26.6069 2.82824 26.5878 2.80325 26.5878 2.79002C27.2124 2.64012 28.0325 2.6651 28.7512 2.64012C29.8329 2.49609 30.9087 2.04637 31.6465 3.15891C31.5715 3.60863 31.1468 3.69093 30.7779 3.80998H30.7764Z" fill="#D0BE92"/>
</g>
<defs>
<clipPath id="clip0_62_2223">
<rect width="49" height="49" fill="white" transform="translate(0.305664 0.877563)"/>
</clipPath>
</defs>
</svg>
