<svg width="49" height="50" viewBox="0 0 49 50" fill="none" xmlns="http://www.w3.org/2000/svg">
<g id="Tab 7">
<g id="Frame">
<path id="Vector" d="M31.9986 14.4508C31.1855 12.753 30.0391 11.818 28.7706 11.818C27.941 11.818 27.1457 12.2271 26.4707 13.0012C26.2841 13.2152 26.1065 13.4581 25.9395 13.7262C25.7798 13.1162 25.6029 12.5351 25.4092 11.988C24.8996 10.5482 24.2967 9.40644 23.6172 8.5944C22.8241 7.64661 21.9466 7.16602 21.009 7.16602C20.0715 7.16602 19.1939 7.64659 18.4009 8.5944C17.7214 9.40641 17.1185 10.5482 16.6089 11.988C15.5947 14.8535 15.0361 18.6482 15.0361 22.673C15.0361 23.0873 15.3719 23.423 15.7861 23.423C16.2003 23.423 16.5361 23.0873 16.5361 22.673C16.5361 18.8144 17.0642 15.1974 18.0229 12.4885C18.87 10.095 19.9863 8.66602 21.009 8.66602C22.0317 8.66602 23.1481 10.095 23.9952 12.4885C24.9539 15.1974 25.482 18.8144 25.482 22.673C25.482 23.0873 25.8178 23.423 26.232 23.423C26.6462 23.423 26.982 23.0873 26.982 22.673C26.982 20.4 26.8038 18.2004 26.466 16.2001C26.4691 16.1915 26.4722 16.183 26.4749 16.1742C27.0253 14.4391 27.9264 13.3179 28.7706 13.3179C29.4203 13.3179 30.1037 13.967 30.6457 15.0987C31.2798 16.4226 31.629 18.1996 31.629 20.1023C31.629 20.5165 31.9648 20.8523 32.379 20.8523C32.7932 20.8523 33.129 20.5165 33.129 20.1023C33.129 17.98 32.7276 15.9729 31.9986 14.4508Z" fill="white" fill-opacity="0.7"/>
<path id="Vector_2" d="M20.494 27.3504C20.1192 27.3504 19.7732 27.3428 19.4616 27.3272C19.0479 27.3065 18.7293 26.9544 18.75 26.5407C18.7706 26.127 19.1226 25.8079 19.5364 25.8291C22.2143 25.9627 28.3178 25.4519 32.6754 24.3259C32.3213 24.2285 31.9267 24.1295 31.5159 24.0264C30.5163 23.7755 29.4827 23.5161 28.7582 23.2111C28.4806 23.0942 28.2709 22.9689 28.1172 22.8279C27.7502 22.4915 27.7456 22.1215 27.7755 21.9309C27.8271 21.6031 28.0376 21.3314 28.4014 21.1235C28.5947 21.013 28.8421 20.9126 29.158 20.8165C29.6247 20.6745 30.2548 20.539 31.0308 20.4139C32.3221 20.2058 33.5755 20.0955 33.6282 20.0909C34.0411 20.0545 34.4045 20.3604 34.4404 20.773C34.4764 21.1857 34.171 21.5493 33.7583 21.5852C33.7451 21.5864 32.713 21.6774 31.5973 21.844C30.9715 21.9374 30.4993 22.0278 30.1444 22.1088C30.6698 22.2675 31.2819 22.4212 31.881 22.5715C32.614 22.7555 33.3063 22.9292 33.8443 23.1121C34.1722 23.2236 34.4122 23.3277 34.5994 23.4395C35.0857 23.7301 35.1928 24.0889 35.197 24.3386C35.2004 24.5477 35.1309 24.9433 34.6259 25.2438C34.4197 25.3665 34.1487 25.4739 33.773 25.5816C31.7702 26.156 29.0651 26.654 26.1559 26.984C24.0663 27.221 22.0376 27.3504 20.494 27.3504Z" fill="white" fill-opacity="0.7"/>
</g>
</g>
</svg>
